<?xml version="1.0" encoding="UTF-8"?>
<svg width="194px" height="30px" viewBox="0 0 194 30" version="1.1" xmlns="http://www.w3.org/2000/svg" xmlns:xlink="http://www.w3.org/1999/xlink">
    <!-- Generator: Sketch 48.2 (47327) - http://www.bohemiancoding.com/sketch -->
    <title>logo2</title>
    <desc>Created with Sketch.</desc>
    <defs></defs>
    <g id="MAIN" stroke="none" stroke-width="1" fill="none" fill-rule="evenodd" transform="translate(-164.000000, -26.000000)">
        <g id="logo2" transform="translate(164.000000, 26.000000)" fill-rule="nonzero">
            <g id="Group">
                <g transform="translate(171.000000, 0.000000)" id="Shape">
                    <polygon fill="#9F9EA0" points="11.25 9.15 11.25 9.15 0.6 9.9 0.6 12.45 11.25 13.65"></polygon>
                    <polygon fill="#646569" points="11.25 9.15 11.25 13.65 21.9 12.45 21.9 9.9"></polygon>
                    <polygon fill="#657E88" points="11.25 13.65 0.6 12.45 0.6 15"></polygon>
                    <polygon fill="#264C59" points="21.9 9.9 21.9 7.35 11.25 9.15"></polygon>
                    <polygon fill="#29B5A6" points="11.25 4.5 0.6 7.35 0.6 9.9 11.25 9.15"></polygon>
                    <path d="M21.45,4.8 L11.25,4.5 L11.25,9 L21.9,7.2 L21.9,5.7 C21.9,5.4 21.75,5.1 21.45,4.8" fill="#009482"></path>
                    <polygon fill="#009482" points="11.25 13.65 11.25 18.3 18.3 16.2 21.9 15 21.9 12.45"></polygon>
                    <path d="M18.3,16.2 L21.75,17.55 C21.9,17.4 22.05,17.1 22.05,16.8 L22.05,15 L18.3,16.2 Z" fill="#646569"></path>
                    <path d="M18.3,16.2 L11.25,18.3 L18.6,19.35 L21.15,18 C21.3,17.85 21.45,17.7 21.6,17.55 L18.3,16.2 Z" fill="#264C59"></path>
                    <path d="M0.6,15 L0.6,16.65 C0.6,16.95 0.75,17.25 0.9,17.55 L11.25,18.3 L11.25,13.8 L0.6,15 Z" fill="#29B5A6"></path>
                    <path d="M10.5,0.15 L1.35,4.5 C0.9,4.8 0.6,5.25 0.6,5.7 L0.6,7.35 L11.25,4.5 L11.25,0 C10.95,0 10.65,0 10.5,0.15" fill="#657E88"></path>
                    <path d="M21.15,4.5 L12,0.15 C11.7,0 11.55,0 11.25,0 L11.25,4.5 L21.6,4.8 C21.45,4.65 21.3,4.65 21.15,4.5" fill="#264C59"></path>
                    <path d="M11.25,18.3 L11.25,22.8 C11.55,22.8 11.85,22.8 12,22.65 L18.6,19.2 L11.25,18.3 Z" fill="#646569"></path>
                    <path d="M0.9,17.55 C1.05,17.7 1.2,17.85 1.35,17.85 L10.5,22.65 C10.8,22.8 10.95,22.8 11.25,22.8 L11.25,18.3 L0.9,17.55 Z" fill="#9F9EA0"></path>
                </g>
                <path d="M10.2,23.7 L2.1,23.7 L2.1,24 C2.1,26.85 3.3,27.9 5.4,27.9 C6.75,27.9 8.55,27.75 9.6,27.6 L9.75,27.6 C9.9,27.6 10.2,27.75 10.2,27.9 L10.2,28.65 C10.2,28.95 10.05,29.1 9.75,29.25 C8.4,29.55 7.05,29.7 5.4,29.7 C2.7,29.7 0,28.5 0,24 L0,21.9 C0,18.45 1.95,16.35 5.25,16.35 C8.7,16.35 10.5,18.6 10.5,21.9 L10.5,23.25 C10.65,23.4 10.35,23.7 10.2,23.7 Z M8.4,21.75 C8.4,19.05 7.35,18 5.25,18 C3.15,18 2.1,19.2 2.1,21.75 L2.1,21.9 L8.4,21.9 L8.4,21.75 Z" id="Shape" fill="#FFFFFF"></path>
                <path d="M36.15,29.55 L34.95,29.55 C34.65,29.55 34.5,29.4 34.5,29.1 L34.5,28.65 C33.15,29.4 32.1,29.7 30.75,29.7 C27.9,29.7 26.55,27.9 26.55,24.75 L26.55,16.95 C26.55,16.65 26.7,16.5 27,16.5 L28.2,16.5 C28.5,16.5 28.65,16.65 28.65,16.95 L28.65,24.75 C28.65,27.15 29.4,27.9 31.35,27.9 C32.4,27.9 33.45,27.45 34.65,27 L34.65,16.95 C34.65,16.65 34.8,16.5 35.1,16.5 L36.3,16.5 C36.6,16.5 36.75,16.65 36.75,16.95 L36.75,29.1 C36.6,29.4 36.45,29.55 36.15,29.55" id="Shape" fill="#FFFFFF"></path>
                <path d="M44.85,29.7 C43.35,29.7 42,29.55 40.5,29.25 C40.05,29.1 40.05,29.1 40.05,28.65 L40.05,12 C40.05,11.7 40.2,11.55 40.5,11.55 L41.7,11.55 C41.85,11.55 42,11.7 42,12 L42,16.5 C42.9,16.35 44.1,16.2 44.85,16.2 C48.3,16.2 50.1,18.3 50.1,22.05 L50.1,23.85 C50.1,27.45 48.45,29.7 44.85,29.7 Z M48,22.05 C48,19.5 47.25,18 44.85,18 C44.1,18 42.9,18 42,18.15 L42,27.6 C42.75,27.6 43.95,27.75 44.85,27.75 C47.25,27.75 48,26.25 48,23.7 L48,22.05 Z" id="Shape" fill="#FFFFFF"></path>
                <path d="M62.7,23.7 L54.75,23.7 L54.75,24 C54.75,26.85 55.95,27.9 58.05,27.9 C59.4,27.9 61.2,27.75 62.25,27.6 L62.4,27.6 C62.55,27.6 62.85,27.75 62.85,27.9 L62.85,28.65 C62.85,28.95 62.7,29.1 62.4,29.25 C61.05,29.55 59.7,29.7 58.05,29.7 C55.35,29.7 52.65,28.35 52.65,24 L52.65,21.9 C52.65,18.45 54.6,16.35 57.9,16.35 C61.35,16.35 63.15,18.6 63.15,21.9 L63.15,23.25 C63.15,23.4 63,23.7 62.7,23.7 Z M61.05,21.75 C61.05,19.05 60,18 57.9,18 C55.8,18 54.75,19.2 54.75,21.75 L54.75,21.9 L61.05,21.9 L61.05,21.75 Z" id="Shape" fill="#FFFFFF"></path>
                <path d="M76.5,29.7 C75.6,29.7 73.95,29.7 72.75,29.4 C72.45,29.4 72.3,29.25 72.3,28.95 L72.3,28.05 C72.3,27.9 72.45,27.75 72.75,27.75 L72.9,27.75 C74.1,27.9 75.75,28.05 76.65,28.05 C78.15,28.05 79.05,27.6 79.05,26.4 C79.05,25.65 78.6,25.2 77.25,24.45 L74.85,22.95 C73.35,22.05 72.45,21 72.45,19.5 C72.45,16.95 74.25,16.35 76.8,16.35 C78.15,16.35 79.35,16.5 80.55,16.65 C80.85,16.65 81,16.8 81,17.1 L81,17.85 C81,18.15 80.85,18.3 80.55,18.3 C79.5,18.15 78,18 76.65,18 C75.3,18 74.4,18.15 74.4,19.35 C74.4,20.1 75,20.55 76.05,21.15 L78.45,22.5 C80.4,23.7 81.15,24.75 81.15,26.1 C81,28.65 79.2,29.7 76.5,29.7" id="Shape" fill="#FFFFFF"></path>
                <path d="M88.65,29.7 C85.2,29.7 83.4,27.45 83.4,23.85 L83.4,22.05 C83.4,18.6 85.2,16.2 88.65,16.2 C92.1,16.2 94.05,18.45 94.05,22.05 L94.05,23.85 C93.9,27.45 92.1,29.7 88.65,29.7 Z M91.8,22.05 C91.8,19.65 90.75,18 88.5,18 C86.25,18 85.35,19.5 85.35,22.05 L85.35,23.85 C85.35,26.25 86.25,27.9 88.5,27.9 C90.75,27.9 91.8,26.4 91.8,23.85 L91.8,22.05 Z" id="Shape" fill="#FFFFFF"></path>
                <path d="M98.85,29.55 L97.5,29.55 C97.2,29.55 97.05,29.4 97.05,29.1 L97.05,12 C97.05,11.7 97.2,11.55 97.5,11.55 L98.7,11.55 C99,11.55 99.15,11.7 99.15,12 L99.15,29.1 C99.3,29.25 99,29.55 98.85,29.55" id="Shape" fill="#FFFFFF"></path>
                <path d="M112.8,29.55 L111.6,29.55 C111.3,29.55 111.15,29.4 111.15,29.1 L111.15,28.65 C109.8,29.4 108.75,29.7 107.4,29.7 C104.55,29.7 103.2,27.9 103.2,24.75 L103.2,16.95 C103.2,16.65 103.35,16.5 103.65,16.5 L104.85,16.5 C105.15,16.5 105.3,16.65 105.3,16.95 L105.3,24.75 C105.3,27.15 106.05,27.9 108,27.9 C109.05,27.9 110.1,27.45 111.3,27 L111.3,16.95 C111.3,16.65 111.45,16.5 111.75,16.5 L112.95,16.5 C113.25,16.5 113.4,16.65 113.4,16.95 L113.4,29.1 C113.25,29.4 113.1,29.55 112.8,29.55" id="Shape" fill="#FFFFFF"></path>
                <path d="M122.55,29.55 C122.1,29.55 121.5,29.7 121.05,29.7 C118.8,29.7 117.75,29.1 117.75,26.55 L117.75,18.15 L115.5,17.85 C115.2,17.85 115.05,17.7 115.05,17.4 L115.05,16.8 C115.05,16.5 115.2,16.35 115.5,16.35 L117.75,16.35 L117.75,13.8 C117.75,13.5 117.9,13.35 118.2,13.35 L119.4,13.35 C119.55,13.35 119.7,13.5 119.7,13.8 L119.7,16.35 L122.25,16.35 C122.55,16.35 122.7,16.5 122.7,16.8 L122.7,17.55 C122.7,17.85 122.55,18 122.25,18 L119.7,18 L119.7,26.4 C119.7,27.75 120,27.9 121.05,27.9 L122.4,27.9 C122.7,27.9 122.85,28.05 122.85,28.2 L122.85,29.1 C123,29.4 123,29.55 122.55,29.55" id="Shape" fill="#FFFFFF"></path>
                <path d="M127.8,14.25 L126.6,14.25 C126.3,14.25 126.15,14.1 126.15,13.8 L126.15,11.85 C126.15,11.55 126.3,11.4 126.6,11.4 L127.8,11.4 C128.1,11.4 128.25,11.55 128.25,11.85 L128.25,13.8 C128.25,14.1 128.1,14.25 127.8,14.25 M127.8,29.55 L126.6,29.55 C126.3,29.55 126.15,29.4 126.15,29.1 L126.15,16.95 C126.15,16.65 126.3,16.5 126.6,16.5 L127.8,16.5 C128.1,16.5 128.25,16.65 128.25,16.95 L128.25,29.1 C128.25,29.4 127.95,29.55 127.8,29.55" id="Shape" fill="#FFFFFF"></path>
                <path d="M136.8,29.7 C133.35,29.7 131.55,27.45 131.55,23.85 L131.55,22.05 C131.55,18.6 133.35,16.2 136.8,16.2 C140.25,16.2 142.2,18.45 142.2,22.05 L142.2,23.85 C142.2,27.45 140.25,29.7 136.8,29.7 Z M139.95,22.05 C139.95,19.65 138.9,18 136.65,18 C134.4,18 133.5,19.5 133.5,22.05 L133.5,23.85 C133.5,26.25 134.4,27.9 136.65,27.9 C138.9,27.9 139.95,26.4 139.95,23.85 L139.95,22.05 Z" id="Shape" fill="#FFFFFF"></path>
                <path d="M154.65,29.55 L153.45,29.55 C153.15,29.55 153,29.4 153,29.1 L153,21.15 C153,18.75 152.25,18 150.3,18 C149.25,18 148.2,18.45 147,18.9 L147,28.95 C147,29.25 146.85,29.4 146.55,29.4 L145.5,29.4 C145.2,29.4 145.05,29.25 145.05,28.95 L145.05,16.8 C145.05,16.5 145.2,16.35 145.5,16.35 L146.7,16.35 C147,16.35 147.15,16.5 147.15,16.8 L147.15,17.25 C148.5,16.5 149.55,16.2 150.9,16.2 C153.75,16.2 155.1,18 155.1,21.15 L155.1,29.1 C155.1,29.4 154.95,29.55 154.65,29.55" id="Shape" fill="#FFFFFF"></path>
                <path d="M162.45,29.7 C161.55,29.7 159.9,29.7 158.7,29.4 C158.4,29.4 158.25,29.25 158.25,28.95 L158.25,28.05 C158.25,27.9 158.4,27.75 158.7,27.75 L158.85,27.75 C160.05,27.9 161.7,28.05 162.6,28.05 C164.1,28.05 165,27.6 165,26.4 C165,25.65 164.55,25.2 163.2,24.45 L160.8,22.95 C159.3,22.05 158.4,21 158.4,19.5 C158.4,16.95 160.2,16.35 162.75,16.35 C164.1,16.35 165.3,16.5 166.5,16.65 C166.8,16.65 166.95,16.8 166.95,17.1 L166.95,17.85 C166.95,18.15 166.8,18.3 166.5,18.3 C165.6,18.3 164.1,18.15 162.75,18.15 C161.4,18.15 160.5,18.3 160.5,19.5 C160.5,20.25 161.1,20.7 162.15,21.3 L164.55,22.65 C166.5,23.85 167.25,24.9 167.25,26.25 C166.8,28.65 165,29.7 162.45,29.7" id="Shape" fill="#FFFFFF"></path>
            </g>
            <g id="Group" transform="translate(12.000000, 11.500000)" fill="#FFFFFF">
                <path d="M11.1,18.05 C10.05,18.2 8.85,18.35 7.35,18.35 C3.3,18.35 1.05,15.2 1.05,10.55 L1.05,8 C1.05,3.2 3.3,0.2 7.35,0.2 C8.7,0.2 10.05,0.35 11.1,0.5 C11.55,0.65 11.7,0.8 11.7,1.25 L11.7,2.45 C11.7,2.75 11.4,2.9 11.25,2.9 L11.1,2.9 C9.75,2.75 8.85,2.6 7.35,2.6 C4.95,2.6 3.6,4.25 3.6,8 L3.6,10.55 C3.6,14.15 4.95,15.95 7.35,15.95 C8.85,15.95 9.75,15.95 11.1,15.8 L11.25,15.8 C11.55,15.8 11.7,15.95 11.7,16.25 L11.7,17.45 C11.55,17.75 11.55,17.9 11.1,18.05" id="Shape"></path>
                <path d="M7.35,18.5 C3.3,18.5 0.9,15.5 0.9,10.55 L0.9,8 C0.9,3.05 3.3,0.05 7.35,0.05 C8.55,0.05 9.9,0.2 11.1,0.35 C11.7,0.5 11.85,0.65 11.85,1.25 L11.85,2.45 C11.85,2.9 11.55,3.05 11.25,3.05 L11.1,3.05 C9.75,2.9 8.85,2.75 7.35,2.75 C4.95,2.75 3.75,4.55 3.75,8 L3.75,10.55 C3.75,14 4.95,15.8 7.35,15.8 C8.7,15.8 9.75,15.8 11.1,15.65 L11.25,15.65 C11.55,15.65 11.85,15.8 11.85,16.25 L11.85,17.45 C11.85,17.9 11.7,18.2 11.1,18.35 C10.35,18.35 9,18.5 7.35,18.5 Z M7.35,0.35 C3.45,0.35 1.2,3.2 1.2,8 L1.2,10.55 C1.2,15.35 3.45,18.2 7.35,18.2 C9,18.2 10.35,18.05 11.1,17.9 C11.55,17.75 11.55,17.75 11.55,17.3 L11.55,16.1 C11.55,15.8 11.4,15.8 11.25,15.8 L11.1,15.8 C9.75,15.95 8.85,15.95 7.35,15.95 C5.55,15.95 3.45,15.05 3.45,10.4 L3.45,8 C3.45,3.5 5.55,2.45 7.35,2.45 C8.7,2.45 9.75,2.45 11.1,2.75 L11.25,2.75 C11.4,2.75 11.55,2.6 11.55,2.45 L11.55,1.25 C11.55,0.95 11.55,0.8 11.1,0.65 C9.9,0.5 8.55,0.35 7.35,0.35 Z" id="Shape"></path>
            </g>
        </g>
    </g>
</svg>