<?xml version="1.0" encoding="UTF-8"?>
<svg width="62px" height="62px" viewBox="0 0 62 62" version="1.1" xmlns="http://www.w3.org/2000/svg" xmlns:xlink="http://www.w3.org/1999/xlink">
    <!-- Generator: Sketch 48.2 (47327) - http://www.bohemiancoding.com/sketch -->
    <title>finance shopping money value</title>
    <desc>Created with Sketch.</desc>
    <defs></defs>
    <g id="box/icon/1" stroke="none" stroke-width="1" fill="none" fill-rule="evenodd" transform="translate(-19.000000, -19.000000)">
        <g id="finance-shopping-money-value" transform="translate(19.000000, 19.000000)" fill-rule="nonzero">
            <g id="XMLID_3059_" transform="translate(10.000000, 16.000000)" fill="#FFD19D">
                <path d="M18,36 C8.07469,36 0,27.9253 0,18 C0,8.0747 8.07469,0 18,0 C27.92529,0 36,8.0747 36,18 C36,27.9253 27.92529,36 18,36 Z" id="Shape"></path>
            </g>
            <g id="XMLID_758_" transform="translate(12.000000, 12.000000)" fill="#1D1B4C">
                <path d="M19,38 C8.52344,38 0,29.47656 0,19 C0,8.52344 8.52344,0 19,0 C29.47656,0 38,8.52344 38,19 C38,29.47656 29.47656,38 19,38 Z M19,2 C9.62598,2 2,9.62598 2,19 C2,28.37402 9.62598,36 19,36 C28.37402,36 36,28.37402 36,19 C36,9.62598 28.37402,2 19,2 Z" id="Shape"></path>
            </g>
            <g id="XMLID_755_" transform="translate(22.000000, 17.000000)" fill="#1D1B4C">
                <path d="M7.72266,27.00977 C7.42823,27.00977 7.13428,27.00782 6.84034,27 C4.06397,26.92676 1.59083,25.24414 0.53956,22.71387 C0.32765,22.2041 0.56935,21.61817 1.07911,21.40625 C1.59034,21.19727 2.17481,21.43555 2.38624,21.94629 C3.13525,23.74902 4.9043,24.94824 6.89307,25 C7.45118,25.0166 8.01123,25.01074 8.5708,25.00488 L9.43555,25 L9.89356,25.00195 C11.01172,25.00781 12.0752,25.0166 13.0127,24.60937 C14.79004,23.83691 16.01856,21.94628 16,20.00976 C16,17.80663 14.56104,15.83398 12.50098,15.20214 C11.68702,14.95214 10.75684,14.97167 9.77295,14.99023 C9.27539,15 8.78906,15 8.29053,15.00781 C7.12744,15.02929 5.92188,15.04883 4.73194,14.64941 C1.91699,13.70508 -0.02881,10.9668 -1.62630326e-19,7.99023 C-1.62630326e-19,5.22753 1.68506,2.63769 4.19287,1.55566 C5.521,0.98242 6.85156,0.98925 8.13037,0.99804 L8.56445,1 L9.41162,0.99512 C9.99414,0.98828 10.57666,0.9834 11.15967,1 C13.93604,1.07324 16.40918,2.75586 17.46045,5.28613 C17.67236,5.7959 17.43066,6.38183 16.9209,6.59375 C16.41114,6.80567 15.82617,6.56445 15.61377,6.05371 C14.86475,4.25098 13.0957,3.05176 11.10693,3 C10.54834,2.98437 9.98877,2.98926 9.4292,2.99512 L8.56445,3 L8.11816,2.99805 C6.99121,2.99317 5.92822,2.98535 4.98535,3.3916 C3.19971,4.16211 2,6.01367 2,8 C1.97998,10.09668 3.39648,12.0918 5.36816,12.75293 C6.23193,13.04199 7.21582,13.02441 8.25634,13.00879 C8.75146,12.99902 9.23632,13 9.73437,12.99024 C10.83203,12.96876 11.96728,12.94629 13.08642,13.29004 C15.97998,14.17676 18,16.93652 18,20 C18.02637,22.75 16.34229,25.34375 13.80957,26.44336 C12.48486,27.01953 11.1626,27.00977 9.88037,27.00195 L9.43555,27 L8.58838,27.00488 C8.2998,27.00781 8.01123,27.00977 7.72266,27.00977 Z" id="Shape"></path>
            </g>
            <g id="XMLID_753_" transform="translate(30.000000, 16.000000)" fill="#1D1B4C">
                <path d="M1,30 C0.44775,30 0,29.55273 0,29 L0,1 C0,0.44727 0.44775,0 1,0 C1.55225,0 2,0.44727 2,1 L2,29 C2,29.55273 1.55225,30 1,30 Z" id="Shape"></path>
            </g>
            <g id="XMLID_748_" transform="translate(17.000000, 30.000000)" fill="#1D1B4C">
                <path d="M1,2 C0.73975,2 0.47998,1.88965 0.29004,1.70996 C0.10986,1.51953 0,1.25977 0,1 C0,0.74023 0.10986,0.47949 0.29004,0.29004 C0.65967,-0.08008 1.33984,-0.08008 1.70996,0.29004 C1.88965,0.47949 2,0.72949 2,1 C2,1.25977 1.88965,1.51953 1.70996,1.70996 C1.52002,1.88965 1.25977,2 1,2 Z" id="Shape"></path>
            </g>
            <g id="XMLID_747_" transform="translate(43.000000, 30.000000)" fill="#1D1B4C">
                <path d="M1,2 C0.73975,2 0.47998,1.88965 0.29004,1.70996 C0.10986,1.51953 0,1.25977 0,1 C0,0.74023 0.10986,0.47949 0.29004,0.29004 C0.65967,-0.08008 1.33984,-0.08008 1.70996,0.29004 C1.88965,0.47949 2,0.74023 2,1 C2,1.25977 1.88965,1.51953 1.70996,1.70996 C1.52002,1.88965 1.25977,2 1,2 Z" id="Shape"></path>
            </g>
            <g id="XMLID_682_" transform="translate(44.000000, 2.000000)" fill="#1D1B4C">
                <path d="M11,12 C10.89404,12 10.7876,11.9834 10.68359,11.94824 L0.6831,8.61523 C0.35449,8.50585 0.10595,8.23437 0.02636,7.89648 C-0.05323,7.55957 0.04736,7.20507 0.29247,6.95996 L6.95946,0.29297 C7.20458,0.04785 7.55663,-0.05176 7.89647,0.02637 C8.23338,0.10645 8.50536,0.3545 8.61522,0.6836 L11.88915,10.50489 C11.97216,10.65137 12.02001,10.82032 12.02001,11.00001 C12.02001,11.55274 11.57226,12.00001 11.02001,12.00001 C11.0127,11.99902 11.00635,12 11,12 Z M2.85059,7.22949 L9.41895,9.41894 L7.2295,2.85156 L2.85059,7.22949 Z" id="Shape"></path>
            </g>
            <g id="XMLID_683_" transform="translate(44.000000, 2.000000)" fill="#1D1B4C">
                <path d="M11,12 C10.89404,12 10.7876,11.9834 10.68359,11.94824 L0.6831,8.61523 C0.35449,8.50585 0.10595,8.23437 0.02636,7.89648 C-0.05323,7.55957 0.04736,7.20507 0.29247,6.95996 L6.95946,0.29297 C7.20458,0.04785 7.55663,-0.05176 7.89647,0.02637 C8.23338,0.10645 8.50536,0.3545 8.61522,0.6836 L11.88915,10.50489 C11.97216,10.65137 12.02001,10.82032 12.02001,11.00001 C12.02001,11.55274 11.57226,12.00001 11.02001,12.00001 C11.0127,11.99902 11.00635,12 11,12 Z M2.85059,7.22949 L9.41895,9.41894 L7.2295,2.85156 L2.85059,7.22949 Z" id="Shape"></path>
            </g>
            <g id="XMLID_684_" transform="translate(44.000000, 2.000000)" fill="#1D1B4C">
                <path d="M11,12 C10.89404,12 10.7876,11.9834 10.68359,11.94824 L0.6831,8.61523 C0.35449,8.50585 0.10595,8.23437 0.02636,7.89648 C-0.05323,7.55957 0.04736,7.20507 0.29247,6.95996 L6.95946,0.29297 C7.20458,0.04785 7.55663,-0.05176 7.89647,0.02637 C8.23338,0.10645 8.50536,0.3545 8.61522,0.6836 L11.88915,10.50489 C11.97216,10.65137 12.02001,10.82032 12.02001,11.00001 C12.02001,11.55274 11.57226,12.00001 11.02001,12.00001 C11.0127,11.99902 11.00635,12 11,12 Z M2.85059,7.22949 L9.41895,9.41894 L7.2295,2.85156 L2.85059,7.22949 Z" id="Shape"></path>
            </g>
            <g id="XMLID_702_" transform="translate(7.000000, 48.000000)" fill="#1D1B4C">
                <path d="M4.3335,13 C4.25684,13 4.18018,12.99121 4.10352,12.97363 C3.76661,12.89355 3.49463,12.6455 3.38477,12.3164 L0.05127,2.3164 C-0.06836,1.95702 0.0249,1.56054 0.29297,1.29296 C0.56104,1.02538 0.95703,0.92968 1.31641,1.05175 L11.3169,4.38476 C11.64551,4.49414 11.89405,4.76562 11.97364,5.10351 C12.05323,5.44042 11.95264,5.79492 11.70753,6.04003 L5.04054,12.70702 C4.85107,12.89648 4.5957,13 4.3335,13 Z M2.58105,3.58105 L4.7705,10.14843 L9.14941,5.7705 L2.58105,3.58105 Z" id="Shape"></path>
            </g>
            <g id="XMLID_752_" fill="#1D1B4C">
                <path d="M4.9209,46.80957 C4.57373,46.80957 4.23682,46.62891 4.05176,46.30664 C1.40137,41.67383 0,36.38086 0,31 C0,22.72363 3.22559,14.93945 9.08301,9.08301 C14.94092,3.22559 22.72412,0 31,0 C36.3042,0 41.5293,1.36133 46.11035,3.9375 C46.98486,4.42383 47.86426,4.97852 48.79492,5.63184 C49.24658,5.94922 49.35596,6.57227 49.03857,7.02442 C48.72216,7.47657 48.09814,7.58692 47.6455,7.26856 C46.77343,6.65626 45.95165,6.1377 45.13427,5.6836 C40.84766,3.27246 35.96191,2 31,2 C23.2583,2 15.97705,5.01758 10.49707,10.49707 C5.01758,15.97656 2,23.25781 2,31 C2,36.0332 3.31006,40.98242 5.78809,45.3125 C6.06202,45.79199 5.896,46.40332 5.41651,46.67773 C5.25977,46.76758 5.08936,46.80957 4.9209,46.80957 Z" id="Shape"></path>
            </g>
            <g id="XMLID_710_" transform="translate(13.000000, 15.000000)" fill="#1D1B4C">
                <path d="M18,47 C13.16309,47 8.53467,45.91504 4.24365,43.77441 C3.25097,43.27343 2.31103,42.74218 1.44531,42.19433 C0.97851,41.89941 0.83984,41.28124 1.13525,40.81445 C1.42968,40.34668 2.04687,40.208 2.51464,40.50488 C3.32616,41.01855 4.20995,41.51758 5.14062,41.9873 C9.14795,43.98535 13.47559,45 18,45 C25.7417,45 33.02295,41.98242 38.50293,36.50293 C43.98242,31.02344 47,23.74219 47,16 C47,11.27832 45.84033,6.59863 43.64648,2.46875 C43.38769,1.98145 43.57275,1.37598 44.06054,1.11719 C44.54784,0.85449 45.15331,1.04297 45.41308,1.53125 C47.75977,5.94824 49,10.95215 49,16 C49,24.27637 45.77441,32.06055 39.91699,37.91699 C34.05908,43.77441 26.27588,47 18,47 Z" id="Shape"></path>
            </g>
            <g id="XMLID_703_" transform="translate(8.000000, 30.000000)" fill="#1D1B4C">
                <path d="M1,2 C0.73975,2 0.47998,1.88965 0.29004,1.70996 C0.10986,1.51953 0,1.25977 0,1 C0,0.72949 0.10986,0.47949 0.29004,0.29004 C0.6499,-0.07031 1.33984,-0.08008 1.70996,0.29004 C1.88965,0.47949 2,0.72949 2,1 C2,1.25977 1.88965,1.51953 1.70996,1.70996 C1.52002,1.88965 1.25977,2 1,2 Z" id="Shape"></path>
            </g>
            <g id="XMLID_704_" transform="translate(4.000000, 30.000000)" fill="#1D1B4C">
                <path d="M1,2 C0.73975,2 0.47998,1.88965 0.29004,1.70996 C0.10986,1.51953 0,1.25977 0,1 C0,0.74023 0.10986,0.47949 0.29004,0.29004 C0.65967,-0.08008 1.33984,-0.08008 1.70996,0.29004 C1.88965,0.47949 2,0.74023 2,1 C2,1.25977 1.88965,1.51953 1.70996,1.70996 C1.52002,1.88965 1.25977,2 1,2 Z" id="Shape"></path>
            </g>
            <g id="XMLID_705_" transform="translate(56.000000, 30.000000)" fill="#1D1B4C">
                <path d="M1,2 C0.73975,2 0.47998,1.88965 0.29004,1.70996 C0.10986,1.51953 0,1.25977 0,1 C0,0.74023 0.10986,0.47949 0.29004,0.29004 C0.66992,-0.08008 1.33984,-0.08008 1.70996,0.29004 C1.88965,0.47949 2,0.72949 2,1 C2,1.25977 1.88965,1.51953 1.70996,1.70996 C1.52002,1.88965 1.25977,2 1,2 Z" id="Shape"></path>
            </g>
            <g id="XMLID_706_" transform="translate(52.000000, 30.000000)" fill="#1D1B4C">
                <path d="M1,2 C0.73975,2 0.47998,1.88965 0.29004,1.70996 C0.10986,1.51953 0,1.25977 0,1 C0,0.72949 0.10986,0.47949 0.29004,0.29004 C0.65967,-0.08008 1.33984,-0.08008 1.70996,0.29004 C1.88965,0.47949 2,0.74023 2,1 C2,1.25977 1.88965,1.51953 1.70996,1.70996 C1.52002,1.88965 1.25977,2 1,2 Z" id="Shape"></path>
            </g>
            <g id="XMLID_707_" transform="translate(30.000000, 52.000000)" fill="#1D1B4C">
                <path d="M1,2 C0.73975,2 0.47998,1.88965 0.29004,1.70996 C0.10986,1.51953 0,1.25977 0,1 C0,0.74023 0.10986,0.47949 0.29004,0.29004 C0.66992,-0.08008 1.32959,-0.08008 1.70996,0.29004 C1.88965,0.47949 2,0.74023 2,1 C2,1.25977 1.88965,1.51953 1.70996,1.70996 C1.52002,1.88965 1.25977,2 1,2 Z" id="Shape"></path>
            </g>
            <g id="XMLID_708_" transform="translate(30.000000, 56.000000)" fill="#1D1B4C">
                <path d="M1,2 C0.73975,2 0.47998,1.88965 0.29004,1.70996 C0.10986,1.51953 0,1.26953 0,1 C0,0.72949 0.10986,0.46973 0.29004,0.29004 C0.65967,-0.08008 1.33984,-0.08008 1.70996,0.29004 C1.88965,0.47949 2,0.74023 2,1 C2,1.25977 1.88965,1.51953 1.70996,1.70996 C1.52002,1.88965 1.27002,2 1,2 Z" id="Shape"></path>
            </g>
            <g id="XMLID_709_" transform="translate(30.000000, 4.000000)" fill="#1D1B4C">
                <path d="M1,2 C0.73975,2 0.47998,1.88965 0.29004,1.70996 C0.10986,1.51953 0,1.26953 0,1 C0,0.74023 0.10986,0.47949 0.29004,0.29004 C0.65967,-0.08008 1.32959,-0.08008 1.70996,0.29004 C1.88965,0.47949 2,0.74023 2,1 C2,1.26953 1.88965,1.51953 1.70996,1.70996 C1.52002,1.88965 1.25977,2 1,2 Z" id="Shape"></path>
            </g>
            <g id="XMLID_711_" transform="translate(30.000000, 8.000000)" fill="#1D1B4C">
                <path d="M1,2 C0.73975,2 0.47998,1.89941 0.29004,1.70996 C0.10986,1.51953 0,1.25977 0,1 C0,0.74023 0.10986,0.47949 0.29004,0.29004 C0.66992,-0.08008 1.33984,-0.08008 1.70996,0.29004 C1.88965,0.47949 2,0.74023 2,1 C2,1.25977 1.88965,1.51953 1.70996,1.70996 C1.52002,1.89941 1.25977,2 1,2 Z" id="Shape"></path>
            </g>
        </g>
    </g>
</svg>