<?xml version="1.0" encoding="UTF-8"?>
<svg width="64px" height="64px" viewBox="0 0 64 64" version="1.1" xmlns="http://www.w3.org/2000/svg" xmlns:xlink="http://www.w3.org/1999/xlink">
    <!-- Generator: Sketch 48.2 (47327) - http://www.bohemiancoding.com/sketch -->
    <title>seo media search competition stats</title>
    <desc>Created with Sketch.</desc>
    <defs></defs>
    <g id="box/icon/2" stroke="none" stroke-width="1" fill="none" fill-rule="evenodd" transform="translate(-18.000000, -18.000000)">
        <g id="seo-media-search-competition-stats" transform="translate(18.000000, 18.000000)" fill-rule="nonzero">
            <g id="XMLID_386_" transform="translate(4.000000, 18.000000)" fill="#FFD19D">
                <circle id="Oval" cx="14" cy="14" r="14"></circle>
            </g>
            <g id="XMLID_468_" transform="translate(1.000000, 41.000000)" fill="#1D1B4C">
                <path d="M7.00098,11.62012 C6.71094,11.62012 6.42383,11.49512 6.22559,11.25293 C3.8086,8.29688 1.96387,4.99414 0.74414,1.43457 C0.56543,0.91211 0.84375,0.34375 1.36621,0.16406 C1.88867,-0.0127 2.45703,0.26367 2.63672,0.78613 C3.77832,4.12011 5.50684,7.21582 7.77442,9.9873 C8.12403,10.41406 8.06055,11.04492 7.63282,11.39453 C7.44727,11.5459 7.22363,11.62012 7.00098,11.62012 Z" id="Shape"></path>
            </g>
            <g id="XMLID_467_" transform="translate(6.000000, 0.000000)" fill="#1D1B4C">
                <path d="M26,64 C22.4668,64 18.99414,63.42676 15.67773,62.2959 C15.15429,62.11817 14.875,61.54981 15.05371,61.02735 C15.23144,60.50391 15.80371,60.22169 16.32226,60.40333 C19.43066,61.46289 22.68652,62 26,62 C42.54199,62 56,48.54199 56,32 C56,15.45801 42.54199,2 26,2 C20.00488,2 14.21875,3.7627 9.26855,7.09863 C6.81054,8.74804 4.61035,10.75683 2.72558,13.07226 C2.37891,13.5 1.74902,13.56641 1.31836,13.21582 C0.89063,12.86719 0.82617,12.2373 1.17481,11.80859 C3.18458,9.34082 5.53223,7.19726 8.15235,5.43945 C13.43262,1.88086 19.60449,0 26,0 C43.64453,0 58,14.35547 58,32 C58,49.64453 43.64453,64 26,64 Z" id="Shape"></path>
            </g>
            <g id="XMLID_396_" transform="translate(31.000000, 9.000000)" fill="#1D1B4C">
                <path d="M1,24 C0.74414,24 0.48828,23.90234 0.29297,23.70703 C-0.09766,23.3164 -0.09766,22.68359 0.29297,22.29297 L22.21289,0.37305 C22.60352,-0.01758 23.23633,-0.01758 23.62695,0.37305 C24.01757,0.76368 24.01758,1.39649 23.62695,1.78711 L1.70703,23.70703 C1.51172,23.90234 1.25586,24 1,24 Z" id="Shape"></path>
            </g>
            <g id="XMLID_397_" transform="translate(31.000000, 31.000000)" fill="#1D1B4C">
                <path d="M1,33 C0.44727,33 0,32.55273 0,32 L0,1 C0,0.44727 0.44727,0 1,0 C1.55273,0 2,0.44727 2,1 L2,32 C2,32.55273 1.55273,33 1,33 Z" id="Shape"></path>
            </g>
            <g id="XMLID_399_" transform="translate(31.000000, 30.000000)" fill="#1D1B4C">
                <path d="M17.00195,29.55664 C16.66308,29.55664 16.33203,29.38476 16.14453,29.07226 L0.14355,2.51563 C-0.14161,2.04297 0.01074,1.42872 0.48437,1.14356 C0.95605,0.85743 1.57128,1.00977 1.85644,1.48438 L17.85742,28.04102 C18.14258,28.51368 17.99023,29.12793 17.5166,29.41309 C17.35547,29.51074 17.17773,29.55664 17.00195,29.55664 Z" id="Shape"></path>
            </g>
            <g id="XMLID_458_" transform="translate(0.000000, 14.000000)" fill="#1D1B4C">
                <path d="M15,30 C6.72852,30 0,23.27148 0,15 C0,6.72852 6.72852,0 15,0 C23.27148,0 30,6.72852 30,15 C30,23.27148 23.27148,30 15,30 Z M15,2 C7.83203,2 2,7.83203 2,15 C2,22.16797 7.83203,28 15,28 C22.16797,28 28,22.16797 28,15 C28,7.83203 22.16797,2 15,2 Z" id="Shape"></path>
            </g>
            <g id="XMLID_457_" transform="translate(4.000000, 18.000000)" fill="#1D1B4C">
                <path d="M11,22 C4.93457,22 0,17.06543 0,11 C0,4.93457 4.93457,0 11,0 C17.06543,0 22,4.93457 22,11 C22,17.06543 17.06543,22 11,22 Z M11,2 C6.03711,2 2,6.03711 2,11 C2,15.96289 6.03711,20 11,20 C15.96289,20 20,15.96289 20,11 C20,6.03711 15.96289,2 11,2 Z" id="Shape"></path>
            </g>
            <g id="XMLID_444_" transform="translate(11.000000, 52.000000)" fill="#1D1B4C">
                <path d="M7,12 L1,12 C0.44727,12 0,11.55273 0,11 L0,1 C0,0.44727 0.44727,0 1,0 L7,0 C7.55273,0 8,0.44727 8,1 L8,11 C8,11.55273 7.55273,12 7,12 Z M2,10 L6,10 L6,2 L2,2 L2,10 Z" id="Shape"></path>
            </g>
            <g id="XMLID_443_" transform="translate(12.000000, 41.000000)" fill="#1D1B4C">
                <path d="M5,13 L1,13 C0.44727,13 0,12.55273 0,12 L0,1.86035 C0,1.30762 0.44727,0.86035 1,0.86035 C1.55273,0.86035 2,1.30762 2,1.86035 L2,11 L4,11 L4,1.86035 C4,1.30762 4.44727,0.86035 5,0.86035 C5.55273,0.86035 6,1.30762 6,1.86035 L6,12 C6,12.55273 5.55273,13 5,13 Z" id="Shape"></path>
            </g>
            <g id="XMLID_442_" transform="translate(18.000000, 28.000000)" fill="#1D1B4C">
                <path d="M1,2 C0.74023,2 0.47949,1.88965 0.29004,1.70996 C0.10938,1.51953 0,1.26953 0,1 C0,0.72949 0.10938,0.47949 0.29004,0.29004 C0.66992,-0.08008 1.33008,-0.08008 1.70996,0.29004 C1.88965,0.47949 2,0.72949 2,1 C2,1.25977 1.88965,1.51953 1.70996,1.70996 C1.51953,1.88965 1.25977,2 1,2 Z" id="Shape"></path>
            </g>
            <g id="XMLID_441_" transform="translate(10.000000, 28.000000)" fill="#1D1B4C">
                <path d="M1,2 C0.74023,2 0.47949,1.88965 0.29004,1.70996 C0.10938,1.51953 0,1.26953 0,1 C0,0.72949 0.10938,0.47949 0.29004,0.29004 C0.66992,-0.08008 1.33008,-0.08008 1.70996,0.29004 C1.88965,0.47949 2,0.74023 2,1 C2,1.25977 1.88965,1.51953 1.70996,1.70996 C1.51953,1.88965 1.25977,2 1,2 Z" id="Shape"></path>
            </g>
            <g id="XMLID_459_" transform="translate(14.000000, 28.000000)" fill="#1D1B4C">
                <path d="M1,2 C0.72949,2 0.47949,1.88965 0.29004,1.70996 C0.10938,1.51953 0,1.25977 0,1 C0,0.74023 0.10938,0.47949 0.29004,0.29004 C0.66016,-0.08008 1.33008,-0.08008 1.70996,0.29004 C1.88965,0.47949 2,0.74023 2,1 C2,1.25977 1.88965,1.51953 1.70996,1.70996 C1.51953,1.88965 1.25977,2 1,2 Z" id="Shape"></path>
            </g>
            <g id="XMLID_388_" transform="translate(31.000000, 0.000000)" fill="#1D1B4C">
                <path d="M1,33 C0.44727,33 0,32.55273 0,32 L0,1 C0,0.44727 0.44727,0 1,0 C1.55273,0 2,0.44727 2,1 L2,32 C2,32.55273 1.55273,33 1,33 Z" id="Shape"></path>
            </g>
            <g id="XMLID_398_" transform="translate(58.000000, 31.000000)" fill="#1D1B4C">
                <path d="M1,2 C0.74023,2 0.47949,1.88965 0.29004,1.70996 C0.10938,1.51953 0,1.25977 0,1 C0,0.72949 0.10938,0.47949 0.29004,0.29004 C0.66992,-0.08008 1.33984,-0.08008 1.70996,0.29004 C1.88965,0.47949 2,0.74023 2,1 C2,1.25977 1.88965,1.51953 1.70996,1.70996 C1.51953,1.88965 1.25977,2 1,2 Z" id="Shape"></path>
            </g>
            <g id="XMLID_460_" transform="translate(58.000000, 27.000000)" fill="#1D1B4C">
                <path d="M1,2 C0.72949,2 0.47949,1.88965 0.29004,1.70996 C0.10938,1.51953 0,1.25977 0,1 C0,0.74023 0.10938,0.47949 0.29004,0.29004 C0.66016,-0.08008 1.33008,-0.08008 1.70996,0.29004 C1.88965,0.47949 2,0.74023 2,1 C2,1.25977 1.88965,1.51953 1.70996,1.70996 C1.51953,1.88965 1.25977,2 1,2 Z" id="Shape"></path>
            </g>
            <g id="XMLID_462_" transform="translate(58.000000, 35.000000)" fill="#1D1B4C">
                <path d="M1,2 C0.74023,2 0.47949,1.88965 0.29004,1.70996 C0.10938,1.51953 0,1.25977 0,1 C0,0.74023 0.10938,0.47949 0.29004,0.29004 C0.66992,-0.08008 1.33008,-0.08008 1.70996,0.29004 C1.88965,0.47949 2,0.74023 2,1 C2,1.25977 1.88965,1.51953 1.70996,1.70996 C1.51953,1.88965 1.25977,2 1,2 Z" id="Shape"></path>
            </g>
            <g id="XMLID_465_" transform="translate(54.000000, 31.000000)" fill="#1D1B4C">
                <path d="M1,2 C0.74023,2 0.47949,1.88965 0.29004,1.70996 C0.10938,1.51953 0,1.25977 0,1 C0,0.72949 0.10938,0.47949 0.29004,0.29004 C0.66992,-0.08008 1.33984,-0.08008 1.70996,0.29004 C1.88965,0.47949 2,0.74023 2,1 C2,1.25977 1.88965,1.51953 1.70996,1.70996 C1.51953,1.88965 1.26953,2 1,2 Z" id="Shape"></path>
            </g>
            <g id="XMLID_464_" transform="translate(54.000000, 27.000000)" fill="#1D1B4C">
                <path d="M1,2 C0.72949,2 0.47949,1.88965 0.29004,1.70996 C0.10938,1.51953 0,1.25977 0,1 C0,0.74023 0.10938,0.47949 0.29004,0.29004 C0.66016,-0.08008 1.33984,-0.08008 1.70996,0.29004 C1.88965,0.47949 2,0.74023 2,1 C2,1.25977 1.88965,1.51953 1.70996,1.70996 C1.51953,1.88965 1.25977,2 1,2 Z" id="Shape"></path>
            </g>
            <g id="XMLID_463_" transform="translate(54.000000, 35.000000)" fill="#1D1B4C">
                <path d="M1,2 C0.74023,2 0.47949,1.88965 0.29004,1.70996 C0.10938,1.51953 0,1.25977 0,1 C0,0.74023 0.10938,0.47949 0.29004,0.29004 C0.66992,-0.08008 1.33008,-0.08008 1.70996,0.29004 C1.88965,0.47949 2,0.74023 2,1 C2,1.25977 1.88965,1.51953 1.70996,1.70996 C1.51953,1.88965 1.25977,2 1,2 Z" id="Shape"></path>
            </g>
            <g id="XMLID_470_" transform="translate(50.000000, 31.000000)" fill="#1D1B4C">
                <path d="M1,2 C0.74023,2 0.47949,1.88965 0.29004,1.70996 C0.10938,1.51953 0,1.25977 0,1 C0,0.72949 0.10938,0.47949 0.29004,0.29004 C0.66992,-0.08008 1.33008,-0.08008 1.70996,0.29004 C1.88965,0.47949 2,0.74023 2,1 C2,1.25977 1.88965,1.51953 1.70996,1.70996 C1.51953,1.88965 1.25977,2 1,2 Z" id="Shape"></path>
            </g>
            <g id="XMLID_469_" transform="translate(50.000000, 27.000000)" fill="#1D1B4C">
                <path d="M1,2 C0.72949,2 0.47949,1.88965 0.29004,1.70996 C0.10938,1.51953 0,1.25977 0,1 C0,0.74023 0.10938,0.47949 0.29004,0.29004 C0.66016,-0.08008 1.33984,-0.08008 1.70996,0.29004 C1.88965,0.47949 2,0.74023 2,1 C2,1.25977 1.88965,1.51953 1.70996,1.70996 C1.51953,1.88965 1.25977,2 1,2 Z" id="Shape"></path>
            </g>
            <g id="XMLID_466_" transform="translate(50.000000, 35.000000)" fill="#1D1B4C">
                <path d="M1,2 C0.74023,2 0.47949,1.88965 0.29004,1.70996 C0.10938,1.51953 0,1.25977 0,1 C0,0.74023 0.10938,0.47949 0.29004,0.29004 C0.66016,-0.08008 1.33008,-0.08008 1.70996,0.29004 C1.88965,0.47949 2,0.74023 2,1 C2,1.25977 1.88965,1.51953 1.70996,1.70996 C1.51953,1.88965 1.25977,2 1,2 Z" id="Shape"></path>
            </g>
            <g id="XMLID_473_" transform="translate(46.000000, 31.000000)" fill="#1D1B4C">
                <path d="M1,2 C0.72949,2 0.47949,1.88965 0.29004,1.70996 C0.10938,1.51953 0,1.26953 0,1 C0,0.72949 0.10938,0.47949 0.29004,0.29004 C0.66016,-0.08008 1.33008,-0.08008 1.70996,0.29004 C1.88965,0.47949 2,0.74023 2,1 C2,1.25977 1.88965,1.51953 1.70996,1.70996 C1.51953,1.88965 1.25977,2 1,2 Z" id="Shape"></path>
            </g>
            <g id="XMLID_472_" transform="translate(46.000000, 27.000000)" fill="#1D1B4C">
                <path d="M1,2 C0.74023,2 0.47949,1.88965 0.29004,1.70996 C0.09961,1.51953 0,1.25977 0,1 C0,0.74023 0.09961,0.47949 0.29004,0.29004 C0.66992,-0.08008 1.33984,-0.08008 1.70996,0.29004 C1.88965,0.47949 2,0.74023 2,1 C2,1.25977 1.88965,1.51953 1.70996,1.70996 C1.51953,1.88965 1.25977,2 1,2 Z" id="Shape"></path>
            </g>
            <g id="XMLID_471_" transform="translate(46.000000, 35.000000)" fill="#1D1B4C">
                <path d="M1,2 C0.74023,2 0.47949,1.88965 0.29004,1.70996 C0.10938,1.51953 0,1.25977 0,1 C0,0.74023 0.10938,0.47949 0.29004,0.29004 C0.66992,-0.08008 1.33008,-0.08008 1.70996,0.29004 C1.88965,0.47949 2,0.74023 2,1 C2,1.25977 1.88965,1.51953 1.70996,1.70996 C1.51953,1.88965 1.25977,2 1,2 Z" id="Shape"></path>
            </g>
            <g id="XMLID_476_" transform="translate(54.000000, 23.000000)" fill="#1D1B4C">
                <path d="M1,2 C0.72949,2 0.47949,1.88965 0.29004,1.70996 C0.10938,1.51953 0,1.25977 0,1 C0,0.74023 0.10938,0.47949 0.29004,0.29004 C0.66016,-0.08008 1.33984,-0.08008 1.70996,0.29004 C1.88965,0.47949 2,0.74023 2,1 C2,1.25977 1.88965,1.51953 1.70996,1.70996 C1.51953,1.88965 1.25977,2 1,2 Z" id="Shape"></path>
            </g>
            <g id="XMLID_475_" transform="translate(50.000000, 23.000000)" fill="#1D1B4C">
                <path d="M1,2 C0.72949,2 0.47949,1.88965 0.29004,1.70996 C0.10938,1.51953 0,1.25977 0,1 C0,0.74023 0.10938,0.47949 0.29004,0.29004 C0.66016,-0.08008 1.33984,-0.08008 1.70996,0.29004 C1.88965,0.47949 2,0.74023 2,1 C2,1.25977 1.88965,1.51953 1.70996,1.70996 C1.51953,1.88965 1.26953,2 1,2 Z" id="Shape"></path>
            </g>
            <g id="XMLID_474_" transform="translate(46.000000, 23.000000)" fill="#1D1B4C">
                <path d="M1,2 C0.74023,2 0.47949,1.88965 0.29004,1.70996 C0.10938,1.51953 0,1.25977 0,1 C0,0.74023 0.10938,0.47949 0.29004,0.29004 C0.66016,-0.08008 1.33984,-0.08008 1.70996,0.29004 C1.88965,0.47949 2,0.74023 2,1 C2,1.25977 1.88965,1.51953 1.70996,1.70996 C1.51953,1.88965 1.25977,2 1,2 Z" id="Shape"></path>
            </g>
            <g id="XMLID_479_" transform="translate(54.000000, 19.000000)" fill="#1D1B4C">
                <path d="M1,2 C0.74023,2 0.47949,1.88965 0.29004,1.70996 C0.10938,1.51953 0,1.25977 0,1 C0,0.74023 0.10938,0.47949 0.29004,0.29004 C0.66992,-0.08008 1.33984,-0.08008 1.70996,0.29004 C1.88965,0.47949 2,0.72949 2,1 C2,1.26953 1.88965,1.51953 1.70996,1.70996 C1.51953,1.88965 1.25977,2 1,2 Z" id="Shape"></path>
            </g>
            <g id="XMLID_478_" transform="translate(50.000000, 19.000000)" fill="#1D1B4C">
                <path d="M1,2 C0.74023,2 0.47949,1.88965 0.29004,1.70996 C0.10938,1.51953 0,1.25977 0,1 C0,0.72949 0.10938,0.47949 0.29004,0.29004 C0.66016,-0.08008 1.33008,-0.08008 1.70996,0.29004 C1.88965,0.47949 2,0.74023 2,1 C2,1.25977 1.88965,1.51953 1.70996,1.70996 C1.51953,1.88965 1.25977,2 1,2 Z" id="Shape"></path>
            </g>
            <g id="XMLID_481_" transform="translate(54.000000, 39.000000)" fill="#1D1B4C">
                <path d="M1,2 C0.74023,2 0.47949,1.88965 0.29004,1.70996 C0.10938,1.51953 0,1.25977 0,1 C0,0.74023 0.10938,0.47949 0.29004,0.29004 C0.66016,-0.08008 1.33984,-0.08008 1.70996,0.29004 C1.88965,0.47949 2,0.74023 2,1 C2,1.25977 1.88965,1.51953 1.70996,1.70996 C1.51953,1.88965 1.25977,2 1,2 Z" id="Shape"></path>
            </g>
            <g id="XMLID_480_" transform="translate(50.000000, 39.000000)" fill="#1D1B4C">
                <path d="M1,2 C0.74023,2 0.47949,1.88965 0.29004,1.70996 C0.10938,1.51953 0,1.25977 0,1 C0,0.72949 0.10938,0.47949 0.29004,0.29004 C0.66016,-0.08008 1.33008,-0.08008 1.70996,0.29004 C1.88965,0.47949 2,0.74023 2,1 C2,1.25977 1.88965,1.51953 1.70996,1.70996 C1.51953,1.88965 1.25977,2 1,2 Z" id="Shape"></path>
            </g>
            <g id="XMLID_477_" transform="translate(46.000000, 39.000000)" fill="#1D1B4C">
                <path d="M1,2 C0.74023,2 0.47949,1.88965 0.29004,1.70996 C0.10938,1.51953 0,1.25977 0,1 C0,0.74023 0.10938,0.47949 0.29004,0.29004 C0.66992,-0.08008 1.33984,-0.08008 1.70996,0.29004 C1.88965,0.47949 2,0.74023 2,1 C2,1.25977 1.88965,1.51953 1.70996,1.70996 C1.51953,1.88965 1.25977,2 1,2 Z" id="Shape"></path>
            </g>
            <g id="XMLID_484_" transform="translate(54.000000, 43.000000)" fill="#1D1B4C">
                <path d="M1,2 C0.74023,2 0.47949,1.88965 0.29004,1.70996 C0.10938,1.51953 0,1.26953 0,1 C0,0.72949 0.10938,0.47949 0.29004,0.29004 C0.66016,-0.08008 1.33008,-0.08008 1.70996,0.29004 C1.88965,0.47949 2,0.74023 2,1 C2,1.26953 1.88965,1.51953 1.70996,1.70996 C1.51953,1.88965 1.25977,2 1,2 Z" id="Shape"></path>
            </g>
            <g id="XMLID_483_" transform="translate(50.000000, 43.000000)" fill="#1D1B4C">
                <path d="M1,2 C0.74023,2 0.47949,1.88965 0.29004,1.70996 C0.10938,1.51953 0,1.26953 0,1 C0,0.72949 0.10938,0.47949 0.29004,0.29004 C0.66016,-0.08008 1.33008,-0.08008 1.70996,0.29004 C1.88965,0.47949 2,0.74023 2,1 C2,1.25977 1.88965,1.51953 1.70996,1.70996 C1.51953,1.88965 1.25977,2 1,2 Z" id="Shape"></path>
            </g>
            <g id="XMLID_525_" transform="translate(42.000000, 31.000000)" fill="#1D1B4C">
                <path d="M1,2 C0.72949,2 0.47949,1.88965 0.29004,1.70996 C0.09961,1.51953 0,1.25977 0,1 C0,0.74023 0.10938,0.47949 0.29004,0.29004 C0.66016,-0.08008 1.33008,-0.08008 1.70996,0.29004 C1.88965,0.47949 2,0.74023 2,1 C2,1.25977 1.88965,1.51953 1.70996,1.70996 C1.51953,1.88965 1.25977,2 1,2 Z" id="Shape"></path>
            </g>
            <g id="XMLID_503_" transform="translate(42.000000, 27.000000)" fill="#1D1B4C">
                <path d="M1,2 C0.74023,2 0.47949,1.88965 0.29004,1.70996 C0.10938,1.51953 0,1.25977 0,1 C0,0.74023 0.10938,0.47949 0.29004,0.29004 C0.66016,-0.08008 1.33984,-0.08008 1.70996,0.29004 C1.88965,0.47949 2,0.74023 2,1 C2,1.25977 1.88965,1.51953 1.70996,1.70996 C1.51953,1.88965 1.26953,2 1,2 Z" id="Shape"></path>
            </g>
            <g id="XMLID_499_" transform="translate(42.000000, 35.000000)" fill="#1D1B4C">
                <path d="M1,2 C0.74023,2 0.47949,1.88965 0.29004,1.70996 C0.10938,1.51953 0,1.26953 0,1 C0,0.72949 0.10938,0.47949 0.29004,0.29004 C0.66992,-0.08008 1.33984,-0.08008 1.70996,0.29004 C1.88965,0.47949 2,0.74023 2,1 C2,1.25977 1.88965,1.51953 1.70996,1.70996 C1.51953,1.88965 1.25977,2 1,2 Z" id="Shape"></path>
            </g>
            <g id="XMLID_495_" transform="translate(42.000000, 39.000000)" fill="#1D1B4C">
                <path d="M1,2 C0.74023,2 0.47949,1.88965 0.29004,1.70996 C0.09961,1.51953 0,1.25977 0,1 C0,0.74023 0.09961,0.47949 0.29004,0.29004 C0.66016,-0.08008 1.33984,-0.08008 1.70996,0.29004 C1.88965,0.47949 2,0.74023 2,1 C2,1.25977 1.88965,1.51953 1.70996,1.70996 C1.51953,1.88965 1.25977,2 1,2 Z" id="Shape"></path>
            </g>
            <g id="XMLID_496_" transform="translate(38.000000, 31.000000)" fill="#1D1B4C">
                <path d="M1,2 C0.72949,2 0.47949,1.88965 0.29004,1.70996 C0.09961,1.51953 0,1.25977 0,1 C0,0.74023 0.09961,0.47949 0.29004,0.29004 C0.66016,-0.08008 1.33008,-0.08008 1.70996,0.29004 C1.88965,0.47949 2,0.74023 2,1 C2,1.25977 1.88965,1.51953 1.70996,1.70996 C1.51953,1.88965 1.25977,2 1,2 Z" id="Shape"></path>
            </g>
        </g>
    </g>
</svg>