<?xml version="1.0" encoding="UTF-8"?>
<svg width="64px" height="64px" viewBox="0 0 64 64" version="1.1" xmlns="http://www.w3.org/2000/svg" xmlns:xlink="http://www.w3.org/1999/xlink">
    <!-- Generator: Sketch 48.2 (47327) - http://www.bohemiancoding.com/sketch -->
    <title>business strategy plan</title>
    <desc>Created with Sketch.</desc>
    <defs></defs>
    <g id="box/icon/3" stroke="none" stroke-width="1" fill="none" fill-rule="evenodd" transform="translate(-18.000000, -18.000000)">
        <g id="business-strategy-plan" transform="translate(18.000000, 18.000000)" fill-rule="nonzero">
            <g id="XMLID_770_" transform="translate(21.000000, 27.000000)" fill="#FFD19D">
                <path d="M22,16 L2,16 C0.89539,16 0,15.1046 0,14 L0,2 C0,0.8954 0.89539,0 2,0 L22,0 C23.10459,0 24,0.8954 24,2 L24,14 C24,15.1046 23.10459,16 22,16 Z" id="Shape"></path>
            </g>
            <g id="XMLID_769_" transform="translate(2.000000, 5.000000)" fill="#FFD19D">
                <circle id="Oval" cx="8" cy="8" r="8"></circle>
            </g>
            <g id="XMLID_768_" transform="translate(48.000000, 42.000000)" fill="#FFD19D">
                <circle id="Oval" cx="8" cy="8" r="8"></circle>
            </g>
            <g id="XMLID_273_" transform="translate(22.000000, 0.000000)" fill="#1D1B4C">
                <path d="M10,20 C4.48633,20 0,15.51416 0,10 C0,4.48584 4.48633,0 10,0 C15.51367,0 20,4.48584 20,10 C20,15.51416 15.51367,20 10,20 Z M10,2 C5.58887,2 2,5.58887 2,10 C2,14.41113 5.58887,18 10,18 C14.41113,18 18,14.41113 18,10 C18,5.58887 14.41113,2 10,2 Z" id="Shape"></path>
            </g>
            <g id="XMLID_315_" transform="translate(22.000000, 44.000000)" fill="#1D1B4C">
                <path d="M10,20 C4.48633,20 0,15.51367 0,10 C0,4.48633 4.48633,0 10,0 C15.51367,0 20,4.48633 20,10 C20,15.51367 15.51367,20 10,20 Z M10,2 C5.58887,2 2,5.58887 2,10 C2,14.41113 5.58887,18 10,18 C14.41113,18 18,14.41113 18,10 C18,5.58887 14.41113,2 10,2 Z" id="Shape"></path>
            </g>
            <g id="XMLID_321_" transform="translate(19.000000, 23.000000)" fill="#1D1B4C">
                <path d="M23,18 L3,18 C1.3457,18 0,16.6543 0,15 L0,3 C0,1.3457 1.3457,0 3,0 L23,0 C24.6543,0 26,1.3457 26,3 L26,15 C26,16.6543 24.6543,18 23,18 Z M3,2 C2.44824,2 2,2.44873 2,3 L2,15 C2,15.55176 2.44824,16 3,16 L23,16 C23.55176,16 24,15.55176 24,15 L24,3 C24,2.44873 23.55176,2 23,2 L3,2 Z" id="Shape"></path>
            </g>
            <g id="XMLID_370_" transform="translate(8.000000, 35.000000)" fill="#1D1B4C">
                <path d="M24,25 C23.44727,25 23,24.55273 23,24 L23,3 C23,2.44824 22.55176,2 22,2 L3,2 C2.44824,2 2,2.44824 2,3 L2,7 C2,7.55273 1.55273,8 1,8 C0.44727,8 0,7.55273 0,7 L0,3 C0,1.3457 1.3457,0 3,0 L22,0 C23.6543,0 25,1.3457 25,3 L25,24 C25,24.55273 24.55273,25 24,25 Z" id="Shape"></path>
            </g>
            <g id="XMLID_367_" transform="translate(8.000000, 7.000000)" fill="#1D1B4C">
                <path d="M45,22 L3,22 C1.3457,22 0,20.6543 0,19 L0,1 C0,0.44775 0.44727,0 1,0 C1.55273,0 2,0.44775 2,1 L2,19 C2,19.55127 2.44824,20 3,20 L45,20 C45.55176,20 46,19.55127 46,19 L46,1 C46,0.44775 46.44727,0 47,0 C47.55273,0 48,0.44775 48,1 L48,19 C48,20.6543 46.6543,22 45,22 Z" id="Shape"></path>
            </g>
            <g id="XMLID_371_" transform="translate(31.000000, 5.000000)" fill="#1D1B4C">
                <path d="M24,52 C23.44727,52 23,51.55273 23,51 L23,33 C23,32.44824 22.55176,32 22,32 L9,32 C7.3457,32 6,30.6543 6,29 C6,28.44824 5.55176,28 5,28 L3,28 C1.3457,28 0,26.6543 0,25 L0,1 C0,0.44775 0.44727,0 1,0 C1.55273,0 2,0.44775 2,1 L2,25 C2,25.55127 2.44824,26 3,26 L5,26 C6.6543,26 8,27.3457 8,29 C8,29.55176 8.44824,30 9,30 L22,30 C23.6543,30 25,31.3457 25,33 L25,51 C25,51.55273 24.55273,52 24,52 Z" id="Shape"></path>
            </g>
            <g id="XMLID_64_" transform="translate(26.000000, 5.000000)" fill="#1D1B4C">
                <path d="M11.00098,8 C10.71387,8 10.42969,7.87744 10.23145,7.64014 L6,2.56201 L1.76855,7.64014 C1.41406,8.06348 0.78515,8.12256 0.35937,7.76807 C-0.06446,7.41455 -0.12208,6.78418 0.23144,6.35987 L5.23144,0.35987 C5.6123,-0.09618 6.38769,-0.09618 6.76855,0.35987 L11.76855,6.35987 C12.12207,6.78419 12.06445,7.41456 11.64062,7.76807 C11.45313,7.92383 11.22656,8 11.00098,8 Z" id="Shape"></path>
            </g>
            <g id="XMLID_533_" transform="translate(26.000000, 52.000000)" fill="#1D1B4C">
                <path d="M6,8 C5.70312,8 5.42187,7.86816 5.23145,7.64062 L0.23145,1.64062 C-0.12207,1.21582 -0.06445,0.58496 0.35938,0.23144 C0.78516,-0.1211 1.41407,-0.06446 1.76856,0.35937 L6,5.4375 L10.23145,0.35937 C10.58497,-0.06446 11.21485,-0.1211 11.64063,0.23144 C12.06446,0.58496 12.12208,1.21582 11.76856,1.64062 L6.76856,7.64062 C6.57813,7.86816 6.29688,8 6,8 Z" id="Shape"></path>
            </g>
            <g id="XMLID_373_" transform="translate(51.000000, 7.000000)" fill="#1D1B4C">
                <path d="M6.99999891,4.999995 C6.74413895,4.999995 6.48827899,4.9023351 6.29296902,4.70702529 L3.99999937,2.41405759 L1.70702973,4.70702529 C1.31639979,5.0976549 0.683589893,5.0976549 0.292969954,4.70702529 C-0.0976499847,4.31639568 -0.0976599847,3.68358632 0.292969954,3.29296671 L3.29296949,0.292969707 C3.68359942,-0.0976599023 4.31640933,-0.0976599023 4.70702926,0.292969707 L7.7070288,3.29296671 C8.09765873,3.68359632 8.09765873,4.31640568 7.7070288,4.70702529 C7.51171883,4.9023351 7.25585887,4.999995 6.99999891,4.999995 Z" id="Shape"></path>
            </g>
            <g id="XMLID_369_" transform="translate(51.000000, 52.000000)" fill="#1D1B4C">
                <path d="M3.99999937,4.9999975 C3.74413941,4.9999975 3.48827945,4.90233755 3.29296949,4.70702765 L0.292969954,1.70702915 C-0.0976599847,1.31639934 -0.0976599847,0.683589658 0.292969954,0.292969854 C0.683599893,-0.0976499512 1.31640979,-0.0976599512 1.70702973,0.292969854 L3.99999937,2.58593871 L6.29296902,0.292969854 C6.68359896,-0.0976599512 7.31640886,-0.0976599512 7.7070288,0.292969854 C8.09764873,0.683599658 8.09765873,1.31640934 7.7070288,1.70702915 L4.70702926,4.70702765 C4.5117193,4.90233755 4.25585934,4.9999975 3.99999937,4.9999975 Z" id="Shape"></path>
            </g>
            <g id="XMLID_372_" transform="translate(5.000000, 38.000000)" fill="#1D1B4C">
                <path d="M3.99999937,4.9999975 C3.74413941,4.9999975 3.48827945,4.90233755 3.29296949,4.70702765 L0.292969954,1.70702915 C-0.0976599847,1.31639934 -0.0976599847,0.683589658 0.292969954,0.292969854 C0.683599893,-0.0976499512 1.31640979,-0.0976599512 1.70702973,0.292969854 L3.99999937,2.58593871 L6.29296902,0.292969854 C6.68359896,-0.0976599512 7.31640886,-0.0976599512 7.7070288,0.292969854 C8.09764873,0.683599658 8.09765873,1.31640934 7.7070288,1.70702915 L4.70702926,4.70702765 C4.5117193,4.90233755 4.25585934,4.9999975 3.99999937,4.9999975 Z" id="Shape"></path>
            </g>
            <g id="XMLID_374_" transform="translate(5.000000, 7.000000)" fill="#1D1B4C">
                <path d="M6.99999891,4.999995 C6.74413895,4.999995 6.48827899,4.9023351 6.29296902,4.70702529 L3.99999937,2.41405759 L1.70702973,4.70702529 C1.31639979,5.0976549 0.683589893,5.0976549 0.292969954,4.70702529 C-0.0976499847,4.31639568 -0.0976599847,3.68358632 0.292969954,3.29296671 L3.29296949,0.292969707 C3.68359942,-0.0976599023 4.31640933,-0.0976599023 4.70702926,0.292969707 L7.7070288,3.29296671 C8.09765873,3.68359632 8.09765873,4.31640568 7.7070288,4.70702529 C7.51171883,4.9023351 7.25585887,4.999995 6.99999891,4.999995 Z" id="Shape"></path>
            </g>
            <g id="XMLID_319_" transform="translate(0.000000, 1.000000)" fill="#1D1B4C">
                <path d="M9,18 C4.03711,18 0,13.9624 0,9 C0,4.0376 4.03711,0 9,0 C13.96289,0 18,4.0376 18,9 C18,13.9624 13.96289,18 9,18 Z M9,2 C5.14062,2 2,5.14014 2,9 C2,12.85986 5.14063,16 9,16 C12.85937,16 16,12.85986 16,9 C16,5.14014 12.85938,2 9,2 Z" id="Shape"></path>
            </g>
            <g id="XMLID_382_" transform="translate(46.000000, 1.000000)" fill="#1D1B4C">
                <path d="M9,18 C4.03711,18 0,13.9624 0,9 C0,4.0376 4.03711,0 9,0 C13.96289,0 18,4.0376 18,9 C18,13.9624 13.96289,18 9,18 Z M9,2 C5.14062,2 2,5.14014 2,9 C2,12.85986 5.14063,16 9,16 C12.85937,16 16,12.85986 16,9 C16,5.14014 12.85938,2 9,2 Z" id="Shape"></path>
            </g>
            <g id="XMLID_390_" transform="translate(46.000000, 45.000000)" fill="#1D1B4C">
                <path d="M9,18 C4.03711,18 0,13.96289 0,9 C0,4.03711 4.03711,0 9,0 C13.96289,0 18,4.03711 18,9 C18,13.96289 13.96289,18 9,18 Z M9,2 C5.14062,2 2,5.14063 2,9 C2,12.85937 5.14063,16 9,16 C12.85937,16 16,12.85937 16,9 C16,5.14063 12.85938,2 9,2 Z" id="Shape"></path>
            </g>
            <g id="XMLID_316_" transform="translate(8.000000, 45.000000)" fill="#1D1B4C">
                <path d="M1,2 C0.74023,2 0.47949,1.88965 0.29004,1.70996 C0.10938,1.51953 0,1.26953 0,1 C0,0.72949 0.10938,0.47949 0.29004,0.29004 C0.66992,-0.08008 1.33008,-0.08008 1.70996,0.29004 C1.88965,0.47949 2,0.72949 2,1 C2,1.25977 1.88965,1.51953 1.70996,1.70996 C1.51953,1.88965 1.25977,2 1,2 Z" id="Shape"></path>
            </g>
            <g id="XMLID_317_" transform="translate(8.000000, 49.000000)" fill="#1D1B4C">
                <path d="M1,2 C0.72949,2 0.47949,1.88965 0.29004,1.70996 C0.10938,1.51953 0,1.26953 0,1 C0,0.72949 0.10938,0.47949 0.29004,0.29004 C0.66016,-0.08008 1.33008,-0.08008 1.70996,0.29004 C1.88965,0.47949 2,0.72949 2,1 C2,1.25977 1.88965,1.51953 1.70996,1.70996 C1.51953,1.88965 1.26953,2 1,2 Z" id="Shape"></path>
            </g>
            <g id="XMLID_318_" transform="translate(8.000000, 53.000000)" fill="#1D1B4C">
                <path d="M1,2 C0.72949,2 0.47949,1.88965 0.29004,1.70996 C0.10938,1.51953 0,1.25977 0,1 C0,0.74023 0.10938,0.47949 0.29004,0.29004 C0.66016,-0.08008 1.33984,-0.08008 1.70996,0.29004 C1.88965,0.47949 2,0.74023 2,1 C2,1.25977 1.88965,1.51953 1.70996,1.70996 C1.51953,1.88965 1.25977,2 1,2 Z" id="Shape"></path>
            </g>
        </g>
    </g>
</svg>