<?xml version="1.0" encoding="UTF-8"?>
<svg width="64px" height="58px" viewBox="0 0 64 58" version="1.1" xmlns="http://www.w3.org/2000/svg" xmlns:xlink="http://www.w3.org/1999/xlink">
    <!-- Generator: Sketch 48.2 (47327) - http://www.bohemiancoding.com/sketch -->
    <title>fitness heart pulse</title>
    <desc>Created with Sketch.</desc>
    <defs></defs>
    <g id="box/icon/4" stroke="none" stroke-width="1" fill="none" fill-rule="evenodd" transform="translate(-18.000000, -21.000000)">
        <g id="fitness-heart-pulse" transform="translate(18.000000, 21.000000)" fill-rule="nonzero">
            <g id="XMLID_239_" transform="translate(1.000000, 0.000000)" fill="#FFD19D">
                <path d="M62,17.96 C62,19.74 61.85,21.35 61.57,22.82 L51,22.82 L45.4,31 L38,14.43 L32.4,22.82 L26.8,22.82 L21.2,31 L12.8,8.93 L8.2,22.82 L0.43,22.82 C0.15,21.35 0,19.74 0,17.96 C0,8.01 6.9,0 15.45,0 C21.19,0 27.5,3.67 31,9.09 C34.5,3.67 40.81,0 46.55,0 C55.1,0 62,8.01 62,17.96 Z" id="Shape"></path>
            </g>
            <g id="XMLID_446_" transform="translate(0.000000, 2.000000)" fill="#1D1B4C">
                <path d="M32,56 C31.68262,56 31.38379,55.84912 31.19531,55.59375 C26.34814,49.02637 20.46484,45.1167 15.27392,41.66748 C7.07813,36.2207 0,31.51709 0,18.96191 C0,8.50635 7.37793,0 16.44629,0 C22.12305,0 28.20557,3.30615 32,8.34863 C35.79443,3.30615 41.87695,0 47.55371,0 C56.62207,0 64,8.50635 64,18.96191 C64,31.51709 56.92187,36.2207 48.72607,41.66748 C43.53515,45.1167 37.65185,49.02637 32.80468,55.59375 C32.61621,55.84912 32.31738,56 32,56 Z M16.44629,2 C8.48047,2 2,9.60889 2,18.96191 C2,30.44482 8.34619,34.66211 16.38086,40.00146 C21.4292,43.35645 27.11621,47.13574 32,53.34961 C36.88379,47.13574 42.5708,43.35645 47.61914,40.00147 C55.65381,34.66211 62,30.44482 62,18.96191 C62,9.60889 55.51953,2 47.55371,2 C42.17383,2 36.12305,5.55176 32.84033,10.63721 C32.47119,11.20752 31.52881,11.20752 31.15967,10.63721 C27.87695,5.55176 21.82617,2 16.44629,2 Z" id="Shape"></path>
            </g>
            <g id="XMLID_445_" transform="translate(54.000000, 10.000000)" fill="#1D1B4C">
                <path d="M5,11.96191 C4.44775,11.96191 4,11.51416 4,10.96191 C4,10.5083 3.98096,10.06103 3.94434,9.61962 C3.90723,9.17919 3.85254,8.74413 3.78077,8.31689 C3.70948,7.89111 3.62061,7.47265 3.51563,7.0625 C3.41114,6.65283 3.29053,6.25195 3.15479,5.86133 C3.01905,5.47022 2.86817,5.08936 2.70313,4.71973 C2.53858,4.35059 2.36036,3.99268 2.16797,3.646 C1.97656,3.30079 1.77149,2.9668 1.55469,2.64649 C1.33838,2.32715 1.11035,2.02051 0.87012,1.72754 C0.52002,1.30029 0.58252,0.67041 1.00977,0.32031 C1.4375,-0.02881 2.0669,0.0332 2.417,0.45996 C2.69532,0.7998 2.96046,1.15527 3.21095,1.52539 C3.46095,1.89453 3.6963,2.27832 3.917,2.67627 C4.13673,3.07275 4.34132,3.48242 4.52979,3.90479 C4.71778,4.32667 4.88917,4.76026 5.04395,5.20459 C5.19776,5.64746 5.33497,6.10303 5.45313,6.56738 C5.57178,7.03027 5.67237,7.50439 5.75342,7.98584 C5.83399,8.4668 5.89551,8.95557 5.9375,9.45264 C5.979,9.94971 6,10.45264 6,10.96192 C6,11.51416 5.55225,11.96191 5,11.96191 Z" id="Shape"></path>
            </g>
            <g id="XMLID_412_" transform="translate(51.000000, 7.000000)" fill="#1D1B4C">
                <path d="M2.00439,2.6875 C1.81445,2.6875 1.62255,2.63379 1.45263,2.521 C1.1582,2.32569 0.85644,2.14795 0.54589,1.9878 C0.05517,1.73438 -0.13722,1.13087 0.1162,0.64014 C0.37011,0.14991 0.97167,-0.04345 1.46386,0.21045 C1.83544,0.40234 2.20361,0.61914 2.5581,0.854 C3.01855,1.15918 3.14404,1.77978 2.83886,2.24023 C2.64648,2.53027 2.32861,2.6875 2.00439,2.6875 Z" id="Shape"></path>
            </g>
            <g id="XMLID_411_" transform="translate(0.000000, 10.000000)" fill="#1D1B4C">
                <path d="M22.2002,25 C22.16114,25 22.12159,24.99756 22.08204,24.99316 C21.71241,24.94921 21.39796,24.70361 21.26563,24.35595 L13.86524,4.91357 L10.14942,16.13427 C10.01417,16.54345 9.63135,16.81982 9.2002,16.81982 L1.43018,16.81982 C0.87793,16.81982 0.43018,16.37207 0.43018,15.81982 C0.43018,15.26757 0.87793,14.81982 1.43018,14.81982 L8.47803,14.81982 L12.85059,1.61572 C12.9834,1.21435 13.35498,0.93994 13.77784,0.93017 C14.20069,0.92529 14.58399,1.17919 14.73438,1.57421 L22.45459,21.8579 L26.97461,15.25487 C27.16113,14.98241 27.46973,14.81981 27.79981,14.81981 L32.86524,14.81981 L38.16846,6.87499 C38.37012,6.57226 38.72412,6.39892 39.08399,6.43358 C39.44727,6.46434 39.76465,6.68993 39.91309,7.02245 L46.58448,21.96044 L51.17481,15.25487 C51.36133,14.98241 51.66993,14.81981 52.00001,14.81981 L62.56983,14.81981 C63.12208,14.81981 63.56983,15.26756 63.56983,15.81981 C63.56983,16.37206 63.12208,16.81981 62.56983,16.81981 L52.52734,16.81981 L47.22509,24.56493 C47.02099,24.86376 46.6665,25.02684 46.31005,24.99608 C45.94921,24.96337 45.63427,24.73827 45.48681,24.4077 L38.82568,9.49217 L34.23145,16.375 C34.0459,16.65283 33.73389,16.81982 33.39991,16.81982 L28.32716,16.81982 L23.0254,24.56494 C22.8374,24.83936 22.52783,25 22.2002,25 Z" id="Shape"></path>
            </g>
            <g id="XMLID_410_" transform="translate(31.000000, 51.000000)" fill="#1D1B4C">
                <path d="M1,2 C0.73975,2 0.47998,1.88965 0.29004,1.70996 C0.10986,1.52002 0,1.25977 0,1 C0,0.73975 0.10986,0.47998 0.29004,0.29004 C0.65967,-0.08008 1.32959,-0.08008 1.70996,0.29004 C1.88965,0.47998 2,0.73975 2,1 C2,1.25977 1.88965,1.52002 1.70996,1.70996 C1.52002,1.88965 1.25977,2 1,2 Z" id="Shape"></path>
            </g>
            <g id="XMLID_409_" transform="translate(31.000000, 47.000000)" fill="#1D1B4C">
                <path d="M1,2 C0.73975,2 0.47998,1.88965 0.29004,1.70996 C0.10986,1.52002 0,1.27002 0,1 C0,0.73975 0.10986,0.47998 0.29004,0.29004 C0.65967,-0.08008 1.33984,-0.08008 1.70996,0.29004 C1.88965,0.47998 2,0.73975 2,1 C2,1.25977 1.88965,1.52002 1.70996,1.70996 C1.52002,1.88965 1.25977,2 1,2 Z" id="Shape"></path>
            </g>
            <g id="XMLID_408_" transform="translate(35.000000, 47.000000)" fill="#1D1B4C">
                <path d="M1,2 C0.73975,2 0.47998,1.88965 0.29004,1.70996 C0.10986,1.52002 0,1.25977 0,1 C0,0.73975 0.10986,0.47998 0.29004,0.29004 C0.65967,-0.08008 1.33984,-0.08008 1.70996,0.29004 C1.88965,0.47998 2,0.73975 2,1 C2,1.27002 1.88965,1.52002 1.69971,1.70996 C1.52002,1.88965 1.25977,2 1,2 Z" id="Shape"></path>
            </g>
            <g id="XMLID_407_" transform="translate(27.000000, 47.000000)" fill="#1D1B4C">
                <path d="M1,2 C0.73975,2 0.47998,1.88965 0.29004,1.70996 C0.10986,1.52002 0,1.25977 0,1 C0,0.73975 0.10986,0.47998 0.29004,0.29004 C0.65967,-0.08008 1.33984,-0.08008 1.70996,0.29004 C1.88965,0.47998 2,0.73975 2,1 C2,1.25977 1.88965,1.52002 1.70996,1.70996 C1.52002,1.88965 1.25977,2 1,2 Z" id="Shape"></path>
            </g>
            <g id="XMLID_406_" transform="translate(31.000000, 43.000000)" fill="#1D1B4C">
                <path d="M1,2 C0.73975,2 0.47998,1.88965 0.29004,1.70996 C0.10986,1.52002 0,1.25977 0,1 C0,0.73975 0.10986,0.47998 0.29004,0.29004 C0.66992,-0.08008 1.33984,-0.08008 1.70996,0.29004 C1.88965,0.47998 2,0.73975 2,1 C2,1.25977 1.88965,1.52002 1.70996,1.70996 C1.52002,1.88965 1.25977,2 1,2 Z" id="Shape"></path>
            </g>
            <g id="XMLID_405_" transform="translate(35.000000, 43.000000)" fill="#1D1B4C">
                <path d="M1,2 C0.73975,2 0.47998,1.88965 0.29004,1.70996 C0.10986,1.52002 0,1.25977 0,1 C0,0.73975 0.10986,0.47998 0.29004,0.29004 C0.65967,-0.07031 1.32959,-0.08008 1.70996,0.29004 C1.88965,0.47998 2,0.73975 2,1 C2,1.25977 1.88965,1.52002 1.70996,1.70996 C1.52002,1.88965 1.25977,2 1,2 Z" id="Shape"></path>
            </g>
            <g id="XMLID_404_" transform="translate(27.000000, 43.000000)" fill="#1D1B4C">
                <path d="M1,2 C0.72998,2 0.47998,1.88965 0.29004,1.70996 C0.10986,1.52002 0,1.25977 0,1 C0,0.73975 0.10986,0.47998 0.29004,0.29004 C0.65967,-0.08008 1.33984,-0.08008 1.70996,0.29004 C1.88965,0.47998 2,0.73975 2,1 C2,1.25977 1.88965,1.52002 1.70996,1.70996 C1.52002,1.88965 1.25977,2 1,2 Z" id="Shape"></path>
            </g>
            <g id="XMLID_403_" transform="translate(39.000000, 43.000000)" fill="#1D1B4C">
                <path d="M1,2 C0.72998,2 0.47998,1.88965 0.29004,1.70996 C0.10986,1.52002 0,1.25977 0,1 C0,0.73975 0.10986,0.47998 0.29004,0.29004 C0.65967,-0.08008 1.33984,-0.08008 1.70996,0.29004 C1.88965,0.47998 2,0.73975 2,1 C2,1.25977 1.88965,1.52002 1.70996,1.70996 C1.52002,1.88965 1.25977,2 1,2 Z" id="Shape"></path>
            </g>
            <g id="XMLID_402_" transform="translate(23.000000, 43.000000)" fill="#1D1B4C">
                <path d="M1,2 C0.73975,2 0.47998,1.88965 0.29004,1.70996 C0.10986,1.52002 0,1.25977 0,1 C0,0.73975 0.10986,0.47998 0.29004,0.29004 C0.65967,-0.08008 1.32959,-0.08008 1.70996,0.29004 C1.88965,0.47998 2,0.73975 2,1 C2,1.25977 1.88965,1.52002 1.70996,1.70996 C1.52002,1.88965 1.25977,2 1,2 Z" id="Shape"></path>
            </g>
            <g id="XMLID_401_" transform="translate(35.000000, 39.000000)" fill="#1D1B4C">
                <path d="M1,2 C0.73975,2 0.47998,1.88965 0.29004,1.70996 C0.10986,1.52002 0,1.25977 0,1 C0,0.73975 0.10986,0.47998 0.29004,0.29004 C0.66992,-0.08008 1.33984,-0.08008 1.70996,0.29004 C1.88965,0.47998 2,0.73975 2,1 C2,1.25977 1.88965,1.52002 1.70996,1.70996 C1.52002,1.88965 1.25977,2 1,2 Z" id="Shape"></path>
            </g>
            <g id="XMLID_400_" transform="translate(27.000000, 39.000000)" fill="#1D1B4C">
                <path d="M1,2 C0.73975,2 0.47998,1.88965 0.29004,1.70996 C0.10986,1.52002 0,1.25977 0,1 C0,0.73975 0.10986,0.47998 0.29004,0.29004 C0.65967,-0.08008 1.32959,-0.08008 1.70996,0.29004 C1.88965,0.47998 2,0.73975 2,1 C2,1.25977 1.88965,1.52002 1.70996,1.70996 C1.52002,1.88965 1.25977,2 1,2 Z" id="Shape"></path>
            </g>
            <g id="XMLID_399_" transform="translate(43.000000, 39.000000)" fill="#1D1B4C">
                <path d="M1,2 C0.73975,2 0.47998,1.88965 0.29004,1.70996 C0.10986,1.52002 0,1.25977 0,1 C0,0.73975 0.10986,0.47998 0.29004,0.29004 C0.66992,-0.08008 1.32959,-0.08008 1.70996,0.29004 C1.88965,0.47998 2,0.73975 2,1 C2,1.25977 1.88965,1.52002 1.70996,1.70996 C1.52002,1.88965 1.25977,2 1,2 Z" id="Shape"></path>
            </g>
            <g id="XMLID_398_" transform="translate(19.000000, 39.000000)" fill="#1D1B4C">
                <path d="M1,2 C0.73975,2 0.47998,1.88965 0.29004,1.70996 C0.10986,1.52002 0,1.25977 0,1 C0,0.73975 0.10986,0.47998 0.29004,0.29004 C0.66992,-0.08008 1.33984,-0.08008 1.70996,0.29004 C1.88965,0.47998 2,0.73975 2,1 C2,1.25977 1.88965,1.52002 1.70996,1.70996 C1.52002,1.88965 1.25977,2 1,2 Z" id="Shape"></path>
            </g>
            <g id="XMLID_196_" transform="translate(0.000000, 10.000000)" fill="#1D1B4C">
                <path d="M22.2002,25 C22.16114,25 22.12159,24.99756 22.08204,24.99316 C21.71241,24.94921 21.39796,24.70361 21.26563,24.35595 L13.86524,4.91357 L10.14942,16.13427 C10.01417,16.54345 9.63135,16.81982 9.2002,16.81982 L1.43018,16.81982 C0.87793,16.81982 0.43018,16.37207 0.43018,15.81982 C0.43018,15.26757 0.87793,14.81982 1.43018,14.81982 L8.47803,14.81982 L12.85059,1.61572 C12.9834,1.21435 13.35498,0.93994 13.77784,0.93017 C14.20069,0.92529 14.58399,1.17919 14.73438,1.57421 L22.45459,21.8579 L26.97461,15.25487 C27.16113,14.98241 27.46973,14.81981 27.79981,14.81981 L32.86524,14.81981 L38.16846,6.87499 C38.37012,6.57226 38.72412,6.39892 39.08399,6.43358 C39.44727,6.46434 39.76465,6.68993 39.91309,7.02245 L46.58448,21.96044 L51.17481,15.25487 C51.36133,14.98241 51.66993,14.81981 52.00001,14.81981 L62.56983,14.81981 C63.12208,14.81981 63.56983,15.26756 63.56983,15.81981 C63.56983,16.37206 63.12208,16.81981 62.56983,16.81981 L52.52734,16.81981 L47.22509,24.56493 C47.02099,24.86376 46.6665,25.02684 46.31005,24.99608 C45.94921,24.96337 45.63427,24.73827 45.48681,24.4077 L38.82568,9.49217 L34.23145,16.375 C34.0459,16.65283 33.73389,16.81982 33.39991,16.81982 L28.32716,16.81982 L23.0254,24.56494 C22.8374,24.83936 22.52783,25 22.2002,25 Z" id="Shape"></path>
            </g>
        </g>
    </g>
</svg>