<?xml version="1.0" encoding="UTF-8"?>
<svg width="64px" height="62px" viewBox="0 0 64 62" version="1.1" xmlns="http://www.w3.org/2000/svg" xmlns:xlink="http://www.w3.org/1999/xlink">
    <!-- Generator: Sketch 48.2 (47327) - http://www.bohemiancoding.com/sketch -->
    <title>design development layers</title>
    <desc>Created with Sketch.</desc>
    <defs></defs>
    <g id="box/icon/5" stroke="none" stroke-width="1" fill="none" fill-rule="evenodd" transform="translate(-18.000000, -19.000000)">
        <g id="design-development-layers" transform="translate(18.000000, 19.000000)" fill-rule="nonzero">
            <g id="XMLID_234_" transform="translate(1.000000, 27.000000)" fill="#FFD19D">
                <polygon id="Shape" points="31 30 0 15 31 0 62 15"></polygon>
            </g>
            <g id="XMLID_1961_" transform="translate(0.000000, 39.000000)" fill="#1D1B4C">
                <path d="M32,23 C31.85059,23 31.70215,22.9668 31.56445,22.90039 L0.56445,7.90039 C0.21973,7.73291 0,7.3833 0,7 C0,6.6167 0.21875,6.26709 0.56445,6.1001 L10.89453,1.1001 C11.39551,0.85791 11.99023,1.06787 12.23047,1.56446 C12.4707,2.06153 12.2627,2.65967 11.76563,2.89991 L3.2959,7 L32,20.88916 L60.7041,7 L52.23437,2.8999 C51.7373,2.65967 51.52929,2.06152 51.76953,1.56445 C52.00976,1.06787 52.60547,0.85791 53.10547,1.10009 L63.43555,6.10009 C63.78125,6.26709 64,6.6167 64,7 C64,7.3833 63.78027,7.73291 63.43555,7.90039 L32.43555,22.90039 C32.29785,22.9668 32.14941,23 32,23 Z" id="Shape"></path>
            </g>
            <g id="XMLID_1960_" transform="translate(0.000000, 29.000000)" fill="#1D1B4C">
                <path d="M32,23 C31.85059,23 31.70215,22.9668 31.56445,22.90039 L0.56445,7.90039 C0.21973,7.73291 0,7.3833 0,7 C0,6.6167 0.21875,6.26709 0.56445,6.1001 L10.89453,1.1001 C11.39551,0.85742 11.99023,1.06836 12.23047,1.56446 C12.4707,2.06153 12.2627,2.65967 11.76563,2.89991 L3.2959,7 L32,20.88916 L60.7041,7 L52.23437,2.8999 C51.7373,2.65967 51.52929,2.06152 51.76953,1.56445 C52.00976,1.06836 52.60547,0.85742 53.10547,1.10009 L63.43555,6.10009 C63.78125,6.26709 64,6.6167 64,7 C64,7.3833 63.78027,7.73291 63.43555,7.90039 L32.43555,22.90039 C32.29785,22.9668 32.14941,23 32,23 Z" id="Shape"></path>
            </g>
            <g id="XMLID_1959_" transform="translate(0.000000, 20.000000)" fill="#1D1B4C">
                <path d="M32,22 C31.85059,22 31.70215,21.9668 31.56445,21.90039 L0.56445,6.90039 C0.21973,6.73291 0,6.3833 0,6 C0,5.6167 0.21875,5.26709 0.56445,5.1001 L10.89453,0.1001 C11.39551,-0.1416 11.99023,0.06885 12.23047,0.56446 C12.4707,1.06153 12.2627,1.65967 11.76563,1.89991 L3.2959,6 L32,19.88916 L60.7041,6 L52.23437,1.8999 C51.7373,1.65967 51.52929,1.06152 51.76953,0.56445 C52.00976,0.06884 52.60547,-0.1416 53.10547,0.10009 L63.43555,5.10009 C63.78125,5.26709 64,5.6167 64,6 C64,6.3833 63.78027,6.73291 63.43555,6.90039 L32.43555,21.90039 C32.29785,21.9668 32.14941,22 32,22 Z" id="Shape"></path>
            </g>
            <g id="XMLID_1958_" fill="#1D1B4C">
                <path d="M32,32.0000025 C31.85059,32.0000025 31.70215,31.9668025 31.56445,31.9003925 L0.56445,16.9003913 C0.21973,16.7329113 0,16.3833013 0,16.0000012 C0,15.6167012 0.21973,15.2670912 0.56445,15.0996112 L31.56445,0.0996100078 C31.83984,-0.0332000026 32.16015,-0.0332000026 32.43554,0.0996100078 L63.43554,15.0996112 C63.78027,15.2670912 64,15.6167012 64,16.0000012 C64,16.3833013 63.78027,16.7329113 63.43555,16.9003913 L32.43555,31.9003925 C32.29785,31.9668025 32.14941,32.0000025 32,32.0000025 Z M3.2959,16 L32,29.88916 L60.7041,16 L32,2.11084 L3.2959,16 Z" id="Shape"></path>
            </g>
            <g id="XMLID_1957_" transform="translate(31.000000, 15.000000)" fill="#1D1B4C">
                <path d="M1,2 C0.74023,2 0.47949,1.88965 0.29004,1.70996 C0.10938,1.52002 0,1.25977 0,1 C0,0.73975 0.10938,0.47998 0.29004,0.29004 C0.66016,-0.08008 1.33984,-0.08008 1.70996,0.29004 C1.88965,0.47998 2,0.73975 2,1 C2,1.25977 1.88965,1.52002 1.70996,1.70996 C1.51953,1.88965 1.25977,2 1,2 Z" id="Shape"></path>
            </g>
            <g id="XMLID_1956_" transform="translate(35.000000, 15.000000)" fill="#1D1B4C">
                <path d="M1,2 C0.74023,2 0.47949,1.88965 0.29004,1.70996 C0.10938,1.52002 0,1.25977 0,1 C0,0.73975 0.10938,0.47998 0.29004,0.29004 C0.66016,-0.08008 1.33984,-0.08008 1.70996,0.29004 C1.88965,0.47998 2,0.73975 2,1 C2,1.25977 1.88965,1.52002 1.70996,1.70996 C1.51953,1.88965 1.26953,2 1,2 Z" id="Shape"></path>
            </g>
            <g id="XMLID_1955_" transform="translate(39.000000, 15.000000)" fill="#1D1B4C">
                <path d="M1,2 C0.74023,2 0.47949,1.88965 0.29004,1.70996 C0.10938,1.52002 0,1.25977 0,1 C0,0.73975 0.10938,0.47998 0.29004,0.29004 C0.66016,-0.08008 1.33984,-0.08008 1.70996,0.29004 C1.88965,0.47998 2,0.73975 2,1 C2,1.25977 1.88965,1.52002 1.7002,1.70996 C1.51953,1.88965 1.25977,2 1,2 Z" id="Shape"></path>
            </g>
            <g id="XMLID_1954_" transform="translate(23.000000, 15.000000)" fill="#1D1B4C">
                <path d="M1,2 C0.74023,2 0.47949,1.88965 0.29004,1.70996 C0.10938,1.52002 0,1.27002 0,1 C0,0.72998 0.10938,0.47998 0.29004,0.29004 C0.66016,-0.08008 1.33008,-0.08008 1.70996,0.29004 C1.88965,0.47998 2,0.73975 2,1 C2,1.25977 1.88965,1.52002 1.70996,1.70996 C1.51953,1.88965 1.25977,2 1,2 Z" id="Shape"></path>
            </g>
            <g id="XMLID_1953_" transform="translate(27.000000, 15.000000)" fill="#1D1B4C">
                <path d="M1,2 C0.74023,2 0.47949,1.88965 0.29004,1.70996 C0.10938,1.52002 0,1.25977 0,1 C0,0.73975 0.10938,0.47998 0.29004,0.29004 C0.66016,-0.08008 1.33984,-0.08008 1.70996,0.29004 C1.88965,0.47998 2,0.73975 2,1 C2,1.25977 1.88965,1.52002 1.70996,1.70996 C1.51953,1.88965 1.25977,2 1,2 Z" id="Shape"></path>
            </g>
        </g>
    </g>
</svg>