<?xml version="1.0" encoding="UTF-8"?>
<svg width="59px" height="64px" viewBox="0 0 59 64" version="1.1" xmlns="http://www.w3.org/2000/svg" xmlns:xlink="http://www.w3.org/1999/xlink">
    <!-- Generator: Sketch 48.2 (47327) - http://www.bohemiancoding.com/sketch -->
    <title>technology connection network</title>
    <desc>Created with Sketch.</desc>
    <defs></defs>
    <g id="box/icon/6" stroke="none" stroke-width="1" fill="none" fill-rule="evenodd" transform="translate(-21.000000, -18.000000)">
        <g id="technology-connection-network" transform="translate(21.000000, 18.000000)" fill-rule="nonzero">
            <g id="XMLID_1619_" transform="translate(24.000000, 30.000000)" fill="#FFD19D">
                <circle id="Oval" cx="4" cy="4" r="4"></circle>
            </g>
            <g id="XMLID_1618_" transform="translate(27.000000, 53.000000)" fill="#FFD19D">
                <circle id="Oval" cx="4" cy="4" r="4"></circle>
            </g>
            <g id="XMLID_1617_" transform="translate(51.000000, 40.000000)" fill="#FFD19D">
                <circle id="Oval" cx="4" cy="4" r="4"></circle>
            </g>
            <g id="XMLID_1616_" transform="translate(3.000000, 40.000000)" fill="#FFD19D">
                <circle id="Oval" cx="4" cy="4" r="4"></circle>
            </g>
            <g id="XMLID_1601_" transform="translate(24.000000, 3.000000)" fill="#FFD19D">
                <circle id="Oval" cx="4" cy="4" r="4"></circle>
            </g>
            <g id="XMLID_1600_" transform="translate(48.000000, 16.000000)" fill="#FFD19D">
                <circle id="Oval" cx="4" cy="4" r="4"></circle>
            </g>
            <g id="XMLID_1599_" transform="translate(0.000000, 16.000000)" fill="#FFD19D">
                <circle id="Oval" cx="4" cy="4" r="4"></circle>
            </g>
            <g id="XMLID_1016_" transform="translate(5.000000, 21.000000)" fill="#1D1B4C">
                <path d="M1,22 C0.44775,22 0,21.55273 0,21 L0,1 C0,0.44727 0.44775,0 1,0 C1.55225,0 2,0.44727 2,1 L2,21 C2,21.55273 1.55225,22 1,22 Z" id="Shape"></path>
            </g>
            <g id="XMLID_1026_" transform="translate(8.000000, 5.000000)" fill="#1D1B4C">
                <path d="M1.45117,11.99023 C1.10693,11.99023 0.77246,11.8125 0.58642,11.49414 C0.3081,11.01758 0.46923,10.40527 0.94628,10.12695 L17.68603,0.35644 C18.1621,0.07714 18.77587,0.23925 19.05371,0.71582 C19.33203,1.19238 19.1709,1.80469 18.69385,2.08301 L1.9541,11.85352 C1.7959,11.94629 1.62207,11.99023 1.45117,11.99023 Z" id="Shape"></path>
            </g>
            <g id="XMLID_1023_" transform="translate(53.000000, 21.000000)" fill="#1D1B4C">
                <path d="M1,22 C0.44775,22 0,21.55273 0,21 L0,1 C0,0.44727 0.44775,0 1,0 C1.55225,0 2,0.44727 2,1 L2,21 C2,21.55273 1.55225,22 1,22 Z" id="Shape"></path>
            </g>
            <g id="XMLID_1020_" transform="translate(8.000000, 47.000000)" fill="#1D1B4C">
                <path d="M18.18896,11.78027 C18.01757,11.78027 17.84423,11.73632 17.68603,11.64355 L0.94628,1.87304 C0.46923,1.59472 0.3081,0.98241 0.58642,0.50585 C0.86474,0.02831 1.47753,-0.13282 1.9541,0.14647 L18.69385,9.91698 C19.1709,10.1953 19.33203,10.80761 19.05371,11.28417 C18.86768,11.60254 18.53271,11.78027 18.18896,11.78027 Z" id="Shape"></path>
            </g>
            <g id="XMLID_1018_" transform="translate(32.000000, 47.000000)" fill="#1D1B4C">
                <path d="M1.81104,11.78027 C1.4668,11.78027 1.13233,11.60254 0.94629,11.28418 C0.66797,10.80762 0.8291,10.19531 1.30615,9.91699 L18.0459,0.14648 C18.52246,-0.13379 19.13574,0.02929 19.41358,0.50586 C19.6919,0.98242 19.53077,1.59473 19.05372,1.87305 L2.31397,11.64356 C2.15576,11.73633 1.98193,11.78027 1.81104,11.78027 Z" id="Shape"></path>
            </g>
            <g id="XMLID_1017_" transform="translate(32.000000, 5.000000)" fill="#1D1B4C">
                <path d="M18.54883,11.99023 C18.37744,11.99023 18.2041,11.94628 18.0459,11.85351 L1.30615,2.08301 C0.8291,1.80469 0.66797,1.19238 0.94629,0.71582 C1.22461,0.23926 1.83692,0.07617 2.31397,0.35644 L19.05372,10.12695 C19.53077,10.40527 19.6919,11.01758 19.41358,11.49414 C19.22754,11.8125 18.89258,11.99023 18.54883,11.99023 Z" id="Shape"></path>
            </g>
            <g id="XMLID_1005_" transform="translate(25.000000, 0.000000)" fill="#1D1B4C">
                <path d="M5,10 C2.24316,10 0,7.75684 0,5 C0,2.24316 2.24316,0 5,0 C7.75684,0 10,2.24316 10,5 C10,7.75684 7.75684,10 5,10 Z M5,2 C3.3457,2 2,3.3457 2,5 C2,6.6543 3.3457,8 5,8 C6.6543,8 8,6.6543 8,5 C8,3.3457 6.6543,2 5,2 Z" id="Shape"></path>
            </g>
            <g id="XMLID_1006_" transform="translate(25.000000, 54.000000)" fill="#1D1B4C">
                <path d="M5,10 C2.24316,10 0,7.75684 0,5 C0,2.24316 2.24316,0 5,0 C7.75684,0 10,2.24316 10,5 C10,7.75684 7.75684,10 5,10 Z M5,2 C3.3457,2 2,3.3457 2,5 C2,6.6543 3.3457,8 5,8 C6.6543,8 8,6.6543 8,5 C8,3.3457 6.6543,2 5,2 Z" id="Shape"></path>
            </g>
            <g id="XMLID_1007_" transform="translate(49.000000, 41.000000)" fill="#1D1B4C">
                <path d="M5,10 C2.24316,10 0,7.75684 0,5 C0,2.24316 2.24316,0 5,0 C7.75684,0 10,2.24316 10,5 C10,7.75684 7.75684,10 5,10 Z M5,2 C3.3457,2 2,3.3457 2,5 C2,6.6543 3.3457,8 5,8 C6.6543,8 8,6.6543 8,5 C8,3.3457 6.6543,2 5,2 Z" id="Shape"></path>
            </g>
            <g id="XMLID_1008_" transform="translate(49.000000, 13.000000)" fill="#1D1B4C">
                <path d="M5,10 C2.24316,10 0,7.75684 0,5 C0,2.24316 2.24316,0 5,0 C7.75684,0 10,2.24316 10,5 C10,7.75684 7.75684,10 5,10 Z M5,2 C3.3457,2 2,3.3457 2,5 C2,6.6543 3.3457,8 5,8 C6.6543,8 8,6.6543 8,5 C8,3.3457 6.6543,2 5,2 Z" id="Shape"></path>
            </g>
            <g id="XMLID_1009_" transform="translate(1.000000, 13.000000)" fill="#1D1B4C">
                <path d="M5,10 C2.24316,10 0,7.75684 0,5 C0,2.24316 2.24316,0 5,0 C7.75684,0 10,2.24316 10,5 C10,7.75684 7.75684,10 5,10 Z M5,2 C3.3457,2 2,3.3457 2,5 C2,6.6543 3.3457,8 5,8 C6.6543,8 8,6.6543 8,5 C8,3.3457 6.6543,2 5,2 Z" id="Shape"></path>
            </g>
            <g id="XMLID_1010_" transform="translate(1.000000, 41.000000)" fill="#1D1B4C">
                <path d="M5,10 C2.24316,10 0,7.75684 0,5 C0,2.24316 2.24316,0 5,0 C7.75684,0 10,2.24316 10,5 C10,7.75684 7.75684,10 5,10 Z M5,2 C3.3457,2 2,3.3457 2,5 C2,6.6543 3.3457,8 5,8 C6.6543,8 8,6.6543 8,5 C8,3.3457 6.6543,2 5,2 Z" id="Shape"></path>
            </g>
            <g id="XMLID_792_" transform="translate(29.000000, 35.000000)" fill="#1D1B4C">
                <path d="M1,21 C0.44775,21 0,20.55273 0,20 L0,1 C0,0.44727 0.44775,0 1,0 C1.55225,0 2,0.44727 2,1 L2,20 C2,20.55273 1.55225,21 1,21 Z" id="Shape"></path>
            </g>
            <g id="XMLID_1012_" transform="translate(29.000000, 8.000000)" fill="#1D1B4C">
                <path d="M1,21 C0.44775,21 0,20.55273 0,20 L0,1 C0,0.44727 0.44775,0 1,0 C1.55225,0 2,0.44727 2,1 L2,20 C2,20.55273 1.55225,21 1,21 Z" id="Shape"></path>
            </g>
            <g id="XMLID_1028_" transform="translate(8.000000, 19.000000)" fill="#1D1B4C">
                <path d="M18.54883,11.99023 C18.37744,11.99023 18.2041,11.94628 18.0459,11.85351 L0.94629,1.87304 C0.46924,1.59472 0.30811,0.98241 0.58643,0.50585 C0.86475,0.02831 1.47754,-0.1338 1.95411,0.14647 L19.05372,10.12694 C19.53077,10.40526 19.6919,11.01757 19.41358,11.49413 C19.22754,11.8125 18.89258,11.99023 18.54883,11.99023 Z" id="Shape"></path>
            </g>
            <g id="XMLID_1027_" transform="translate(32.000000, 19.000000)" fill="#1D1B4C">
                <path d="M1.45117,11.99023 C1.10693,11.99023 0.77246,11.8125 0.58642,11.49414 C0.3081,11.01758 0.46923,10.40527 0.94628,10.12695 L18.04589,0.14648 C18.52245,-0.13379 19.13573,0.02929 19.41357,0.50586 C19.69189,0.98242 19.53076,1.59473 19.05371,1.87305 L1.9541,11.85352 C1.7959,11.94629 1.62207,11.99023 1.45117,11.99023 Z" id="Shape"></path>
            </g>
            <g id="XMLID_1022_" transform="translate(32.000000, 33.000000)" fill="#1D1B4C">
                <path d="M18.54883,11.99023 C18.37744,11.99023 18.2041,11.94628 18.0459,11.85351 L0.94629,1.87304 C0.46924,1.59472 0.30811,0.98241 0.58643,0.50585 C0.86475,0.02831 1.47754,-0.13282 1.95411,0.14647 L19.05372,10.12694 C19.53077,10.40526 19.6919,11.01757 19.41358,11.49413 C19.22754,11.8125 18.89258,11.99023 18.54883,11.99023 Z" id="Shape"></path>
            </g>
            <g id="XMLID_1024_" transform="translate(8.000000, 33.000000)" fill="#1D1B4C">
                <path d="M1.45117,11.99023 C1.10693,11.99023 0.77246,11.8125 0.58642,11.49414 C0.3081,11.01758 0.46923,10.40527 0.94628,10.12695 L18.04589,0.14648 C18.52294,-0.13379 19.13525,0.02929 19.41357,0.50586 C19.69189,0.98243 19.53076,1.59473 19.05371,1.87305 L1.9541,11.85352 C1.7959,11.94629 1.62207,11.99023 1.45117,11.99023 Z" id="Shape"></path>
            </g>
            <g id="XMLID_1011_" transform="translate(25.000000, 27.000000)" fill="#1D1B4C">
                <path d="M5,10 C2.24316,10 0,7.75684 0,5 C0,2.24316 2.24316,0 5,0 C7.75684,0 10,2.24316 10,5 C10,7.75684 7.75684,10 5,10 Z M5,2 C3.3457,2 2,3.3457 2,5 C2,6.6543 3.3457,8 5,8 C6.6543,8 8,6.6543 8,5 C8,3.3457 6.6543,2 5,2 Z" id="Shape"></path>
            </g>
            <g id="XMLID_1029_" transform="translate(7.000000, 7.000000)" fill="#1D1B4C">
                <path d="M1.01904,36.5498 C0.84765,36.5498 0.67383,36.50585 0.51465,36.41308 C0.03809,36.13378 -0.12207,35.52148 0.15723,35.04492 L20.11719,0.94531 C20.396,0.46777 21.00635,0.30761 21.48535,0.58691 C21.96191,0.86621 22.12207,1.47851 21.84277,1.95507 L1.88281,36.05469 C1.69678,36.37305 1.36279,36.5498 1.01904,36.5498 Z" id="Shape"></path>
            </g>
            <g id="XMLID_1031_" transform="translate(31.000000, 7.000000)" fill="#1D1B4C">
                <path d="M20.98096,36.5498 C20.63721,36.5498 20.30323,36.37304 20.11719,36.05468 L0.15723,1.95508 C-0.12207,1.47852 0.03809,0.86621 0.51465,0.58692 C0.99365,0.3086 1.60401,0.46876 1.88281,0.94532 L21.84277,35.04493 C22.12207,35.52149 21.96191,36.1338 21.48535,36.41309 C21.32617,36.50586 21.15234,36.5498 20.98096,36.5498 Z" id="Shape"></path>
            </g>
            <g id="XMLID_1025_" transform="translate(9.000000, 45.000000)" fill="#1D1B4C">
                <path d="M41,2 L1,2 C0.44775,2 0,1.55273 0,1 C0,0.44727 0.44775,0 1,0 L41,0 C41.55225,0 42,0.44727 42,1 C42,1.55273 41.55225,2 41,2 Z" id="Shape"></path>
            </g>
        </g>
    </g>
</svg>