<?xml version="1.0" encoding="UTF-8"?>
<svg width="12px" height="22px" viewBox="0 0 12 22" version="1.1" xmlns="http://www.w3.org/2000/svg" xmlns:xlink="http://www.w3.org/1999/xlink">
    <!-- Generator: Sketch 48.2 (47327) - http://www.bohemiancoding.com/sketch -->
    <title>left_slide</title>
    <desc>Created with Sketch.</desc>
    <defs></defs>
    <g id="MAIN" stroke="none" stroke-width="1" fill="none" fill-rule="evenodd" transform="translate(-164.000000, -389.000000)" opacity="0.663552989">
        <g id="Group-4" transform="translate(164.000000, 389.000000)" fill="#FFFFFF">
            <g id="left_slide" transform="translate(6.000000, 11.000000) scale(-1, 1) translate(-6.000000, -11.000000) ">
                <path d="M0.418803419,20.9145299 C0.692307692,21.1880342 1.03418803,21.3247863 1.41025641,21.3247863 C1.75213675,21.3247863 2.12820513,21.1880342 2.4017094,20.9145299 L11.4273504,11.8888889 C11.7008547,11.6153846 11.8376068,11.2735043 11.8376068,10.8974359 C11.8376068,10.5213675 11.7008547,10.1794872 11.4273504,9.90598291 L2.4017094,0.88034188 C1.85470085,0.333333333 0.965811966,0.333333333 0.418803419,0.88034188 C-0.128205128,1.42735043 -0.128205128,2.31623932 0.418803419,2.86324786 L8.45299145,10.8974359 L0.418803419,18.9316239 C-0.128205128,19.4786325 -0.128205128,20.3675214 0.418803419,20.9145299 L0.418803419,20.9145299 Z" id="Shape"></path>
            </g>
        </g>
    </g>
</svg>