<?xml version="1.0" encoding="UTF-8"?>
<svg width="12px" height="22px" viewBox="0 0 12 22" version="1.1" xmlns="http://www.w3.org/2000/svg" xmlns:xlink="http://www.w3.org/1999/xlink">
    <!-- Generator: Sketch 48.2 (47327) - http://www.bohemiancoding.com/sketch -->
    <title>right_slide</title>
    <desc>Created with Sketch.</desc>
    <defs></defs>
    <g id="MAIN" stroke="none" stroke-width="1" fill="none" fill-rule="evenodd" transform="translate(-1266.000000, -389.000000)" opacity="0.663552989">
        <g id="Group-4" transform="translate(164.000000, 389.000000)" fill="#FFFFFF">
            <g id="right_slide" transform="translate(1102.000000, 0.000000)">
                <path d="M0.418803419,20.6945701 C0.692307692,20.9660633 1.03418803,21.10181 1.41025641,21.10181 C1.75213675,21.10181 2.12820513,20.9660633 2.4017094,20.6945701 L11.4273504,11.7352941 C11.7008547,11.4638009 11.8376068,11.1244344 11.8376068,10.7511312 C11.8376068,10.3778281 11.7008547,10.0384615 11.4273504,9.76696833 L2.4017094,0.807692308 C1.85470085,0.264705882 0.965811966,0.264705882 0.418803419,0.807692308 C-0.128205128,1.35067873 -0.128205128,2.23303167 0.418803419,2.7760181 L8.45299145,10.7511312 L0.418803419,18.7262443 C-0.128205128,19.2692308 -0.128205128,20.1515837 0.418803419,20.6945701 L0.418803419,20.6945701 Z" id="Shape"></path>
            </g>
        </g>
    </g>
</svg>